<?xml version="1.0" encoding="utf-8"?>
<!-- Generator: Adobe Illustrator 17.0.1, SVG Export Plug-In . SVG Version: 6.00 Build 0)  -->
<!DOCTYPE svg PUBLIC "-//W3C//DTD SVG 1.1//EN" "http://www.w3.org/Graphics/SVG/1.1/DTD/svg11.dtd">
<svg version="1.1" id="Calque_1" xmlns="http://www.w3.org/2000/svg" xmlns:xlink="http://www.w3.org/1999/xlink" x="0px" y="0px"
	 width="480px" height="168px" viewBox="0 0 480 168" enable-background="new 0 0 480 168" xml:space="preserve">
<g>
	<path d="M160.113,56.358c-9.462,22.398-34.496,19.403-34.496,19.403l1.317,26.112c-4.312,1.557-7.306,0.239-7.306,0.239
		l-1.797-76.538c-1.198-2.995,1.078-3.474,1.078-3.474c17.488-4.072,27.19,0.239,27.19,0.239
		C166.341,33.959,160.113,56.358,160.113,56.358z M144.901,27.491c0,0-8.983-5.629-19.644-1.676l0.719,46.115
		c0,0,13.774-0.719,24.913-15.571C150.89,56.358,162.149,38.871,144.901,27.491z"/>
	<path d="M208.977,99.838c-22.758,11.979-36.532-9.583-36.532-9.583c-15.092-36.053,15.212-45.156,15.212-45.156
		c27.189-7.666,32.46,18.206,32.46,18.206C225.745,86.422,208.977,99.838,208.977,99.838z M213.768,65.342
		c0,0-3.952-19.884-24.914-14.014c0,0-23.236,7.066-11.618,34.736c0,0,10.54,16.529,28.028,7.306
		C205.264,93.369,218.08,83.188,213.768,65.342z"/>
	<path d="M260.955,88.22c-1.678,15.57-8.146,15.091-8.146,15.091c-17.727,3.115-16.17-13.534-16.17-13.534
		c-0.719-5.989-1.078-20.003-1.317-33.897l-3.952-0.121c0,0-4.553-0.479-1.318-4.072h5.27c-0.239-17.128-0.239-33.178-0.239-33.178
		c3.474-5.989,6.349,0.36,6.349,0.36c-0.48,1.557,0.119,19.883,0.599,32.818h15.211c0,0,2.636,1.557,0.12,4.313l-15.092-0.12
		c0.239,4.91,0.358,8.384,0.358,8.384c-1.196,33.179,5.391,33.418,5.391,33.418c6.469,4.313,7.066-9.821,7.066-9.821
		C258.079,82.11,260.955,88.22,260.955,88.22z"/>
	<path d="M317.007,51.088c-0.479,5.151-0.479,51.863-0.479,51.863l-6.349-0.718c-1.557-3.595-0.478-25.394-0.478-25.394
		c-6.707,20.243-12.577,22.278-12.577,22.278c-21.32,12.458-28.148-17.008-28.148-17.008c-2.994-45.516,42.162-37.61,42.162-37.61
		C319.402,42.943,317.007,51.088,317.007,51.088z M310.418,47.614c0,0-27.189-0.719-34.615,19.165c0,0-5.39,16.648,5.15,29.106
		c0,0,15.691,12.456,23.836-22.28C304.789,73.605,308.622,59.353,310.418,47.614z"/>
	<path d="M362.157,138.587c-21.681,27.55-34.976-3.832-34.976-3.832l6.469-1.438c11.617,23.596,23.477,3.113,23.477,3.113
		c3.593-7.785,0.718-46.894,0.718-46.894c-4.911,14.372-13.295,13.654-13.295,13.654c-20.722,2.876-19.285-24.195-19.285-24.195
		c0.479-32.58,31.143-33.658,31.143-33.658c5.511-3.833,6.947,1.797,6.947,1.797v33.418
		C365.271,111.457,362.157,138.587,362.157,138.587z M355.688,50.729c0,0-18.805-1.438-23.236,24.914
		c0,0-1.199,32.699,18.564,17.248C351.017,92.891,357.605,87.021,355.688,50.729z"/>
	<path d="M405.27,90.854l5.631,2.515c-4.792,12.698-17.967,10.66-17.967,10.66c-16.53-2.035-18.807-13.534-18.807-13.534
		c-2.516-6.348-2.755-17.129-2.755-17.129c-0.838-15.092,11.5-24.434,11.5-24.434c14.013-8.145,23.236-3.354,23.236-3.354
		c12.097,6.468,1.796,21.082,1.796,21.082c-18.326,18.806-31.262,4.552-31.262,4.552c0,8.983,1.917,14.014,1.917,14.014
		c5.39,12.337,13.295,14.013,13.295,14.013C403.594,103.191,405.27,90.854,405.27,90.854z M377.723,66.42
		c12.935,15.331,26.47-5.15,26.47-5.15c4.792-7.786,1.917-11.859,1.917-11.859C384.549,43.901,377.723,66.42,377.723,66.42z"/>
	<path d="M426.469,47.136l1.917,9.103c5.629-12.337,16.769-12.218,16.769-12.218c13.175-0.599,7.186,5.27,7.186,5.27
		c-14.374-2.755-17.009,7.187-17.009,7.187c-6.229,8.385-3.114,46.115-3.114,46.115c-2.755,2.874-7.905-0.239-7.905-0.239
		c0.12-7.786-4.552-53.661-4.552-53.661C422.037,42.703,426.469,47.136,426.469,47.136z"/>
</g>
<g>
	<path d="M140.234,118.465c-0.916-1.011-2.006-1.8-3.269-2.369c-1.263-0.568-2.622-0.853-4.074-0.853
		c-2.053,0-3.885,0.427-5.495,1.279c-1.611,0.853-2.977,1.974-4.098,3.363c-1.122,1.39-1.998,2.984-2.629,4.784
		c-0.632,1.801-0.995,3.648-1.09,5.543c-0.095,2.021,0.102,4.011,0.592,5.969c0.489,1.958,1.279,3.711,2.369,5.258
		c1.089,1.548,2.479,2.795,4.168,3.742c1.689,0.948,3.703,1.422,6.04,1.422c1.421,0,2.778-0.284,4.074-0.853
		c1.294-0.569,2.4-1.311,3.316-2.227l1.469,1.184c-1.106,1.169-2.4,2.061-3.885,2.677s-3.079,0.972-4.784,1.066
		c-2.716,0.157-5.069-0.276-7.059-1.303c-1.989-1.026-3.624-2.416-4.903-4.169c-1.279-1.753-2.203-3.758-2.771-6.017
		c-0.568-2.257-0.774-4.555-0.616-6.893c0.125-2.115,0.544-4.168,1.255-6.158c0.711-1.989,1.706-3.766,2.984-5.329
		c1.279-1.563,2.842-2.826,4.69-3.79c1.848-0.963,3.971-1.46,6.372-1.492c1.736-0.03,3.347,0.332,4.832,1.09s2.779,1.722,3.885,2.89
		L140.234,118.465z"/>
	<path d="M144.593,136.607c0-1.705,0.332-3.284,0.995-4.736s1.547-2.716,2.653-3.79c1.105-1.073,2.384-1.919,3.837-2.534
		c1.452-0.616,2.968-0.955,4.548-1.019c1.673-0.031,3.245,0.269,4.713,0.9c1.468,0.632,2.748,1.5,3.837,2.604
		c1.09,1.106,1.949,2.4,2.582,3.885c0.631,1.485,0.947,3.048,0.947,4.689c0,1.675-0.324,3.238-0.971,4.69
		c-0.648,1.453-1.518,2.731-2.606,3.837c-1.089,1.105-2.369,1.974-3.837,2.605c-1.469,0.631-3.024,0.947-4.666,0.947
		c-1.643,0-3.198-0.316-4.666-0.947c-1.469-0.632-2.748-1.5-3.837-2.605c-1.089-1.105-1.95-2.384-2.582-3.837
		C144.908,139.846,144.593,138.282,144.593,136.607z M146.535,136.561c0,1.39,0.268,2.7,0.806,3.932
		c0.537,1.231,1.263,2.306,2.179,3.222s1.981,1.634,3.198,2.155c1.215,0.521,2.518,0.781,3.908,0.781c1.389,0,2.7-0.261,3.932-0.781
		c1.232-0.521,2.305-1.239,3.221-2.155c0.916-0.916,1.642-1.99,2.179-3.222s0.805-2.542,0.805-3.932s-0.268-2.7-0.805-3.932
		s-1.264-2.305-2.179-3.222c-0.916-0.915-1.989-1.634-3.221-2.155c-1.231-0.521-2.542-0.766-3.932-0.734
		c-1.201,0.032-2.4,0.301-3.6,0.806c-1.201,0.506-2.282,1.2-3.245,2.084c-0.964,0.885-1.745,1.935-2.345,3.15
		C146.834,133.773,146.535,135.108,146.535,136.561z"/>
	<path d="M172.921,148.309v-23.165h1.942v2.132c1.895-1.104,3.749-1.918,5.565-2.439c1.816-0.521,3.529-0.561,5.141-0.118
		c1.073,0.284,1.996,0.758,2.771,1.421c0.773,0.663,1.437,1.453,1.99,2.369c0.552,0.916,1.002,1.918,1.35,3.008
		s0.64,2.211,0.876,3.363c0.237,1.153,0.41,2.29,0.521,3.411c0.11,1.121,0.213,2.171,0.308,3.149
		c0.095,1.106,0.158,2.243,0.189,3.411c0.031,1.169,0.031,2.321,0,3.458h-1.941c0.063-2.179,0.015-4.311-0.143-6.396
		c-0.063-1.104-0.182-2.463-0.355-4.073c-0.174-1.611-0.481-3.189-0.924-4.737c-0.442-1.547-1.082-2.929-1.918-4.146
		c-0.837-1.215-1.966-2.013-3.388-2.392c-1.516-0.41-3.143-0.309-4.879,0.308c-1.737,0.616-3.458,1.509-5.163,2.677v18.759H172.921z
		"/>
	<path d="M198.975,148.309v-23.165h1.942v2.132c1.895-1.104,3.749-1.918,5.565-2.439c1.816-0.521,3.529-0.561,5.141-0.118
		c1.073,0.284,1.996,0.758,2.771,1.421c0.773,0.663,1.437,1.453,1.99,2.369c0.552,0.916,1.002,1.918,1.35,3.008
		s0.64,2.211,0.876,3.363c0.237,1.153,0.41,2.29,0.521,3.411c0.11,1.121,0.213,2.171,0.308,3.149
		c0.095,1.106,0.158,2.243,0.189,3.411c0.031,1.169,0.031,2.321,0,3.458h-1.941c0.063-2.179,0.015-4.311-0.143-6.396
		c-0.063-1.104-0.182-2.463-0.355-4.073c-0.174-1.611-0.481-3.189-0.924-4.737c-0.442-1.547-1.082-2.929-1.918-4.146
		c-0.837-1.215-1.966-2.013-3.388-2.392c-1.516-0.41-3.143-0.309-4.879,0.308c-1.737,0.616-3.458,1.509-5.163,2.677v18.759H198.975z
		"/>
	<path d="M224.935,136.371c0.03,1.39,0.314,2.7,0.853,3.932c0.536,1.231,1.263,2.313,2.179,3.245s1.974,1.666,3.174,2.203
		s2.494,0.789,3.885,0.758c1.8-0.031,3.561-0.458,5.282-1.279c1.721-0.821,3.181-2.084,4.382-3.79l1.752,0.947h-0.142
		c-0.727,1.043-1.54,1.936-2.439,2.677c-0.9,0.742-1.848,1.351-2.843,1.824s-2.006,0.821-3.031,1.042
		c-1.027,0.222-2.014,0.348-2.961,0.379c-1.705,0.063-3.292-0.213-4.761-0.829s-2.732-1.46-3.79-2.534
		c-1.059-1.073-1.888-2.337-2.487-3.79c-0.6-1.452-0.899-3.016-0.899-4.689c0-1.642,0.315-3.197,0.947-4.666
		c0.631-1.469,1.484-2.748,2.558-3.837c1.073-1.09,2.337-1.95,3.79-2.582c1.452-0.631,3-0.947,4.643-0.947
		c1.421,0,2.85,0.292,4.287,0.876c1.437,0.585,2.731,1.397,3.885,2.439c1.152,1.043,2.067,2.291,2.747,3.743
		c0.679,1.452,0.955,3.048,0.829,4.784L224.935,136.371z M235.024,126.187c-1.231,0-2.4,0.213-3.506,0.64
		c-1.105,0.426-2.101,1.011-2.984,1.752c-0.885,0.743-1.618,1.619-2.202,2.63c-0.585,1.011-0.987,2.101-1.208,3.269h19.706
		c-0.158-1.043-0.521-2.062-1.09-3.056c-0.568-0.995-1.287-1.879-2.155-2.653c-0.869-0.773-1.871-1.397-3.008-1.871
		S236.256,126.187,235.024,126.187z"/>
	<path d="M270.222,129.691c-0.917-1.01-2.006-1.8-3.269-2.368c-1.264-0.568-2.622-0.853-4.074-0.853
		c-1.391,0-2.693,0.269-3.908,0.805c-1.216,0.538-2.282,1.264-3.197,2.18c-0.917,0.916-1.643,1.989-2.18,3.221
		c-0.537,1.232-0.805,2.543-0.805,3.932c0,1.391,0.268,2.7,0.805,3.933c0.537,1.231,1.263,2.306,2.18,3.221
		c0.915,0.917,1.981,1.635,3.197,2.155c1.215,0.521,2.518,0.782,3.908,0.782c1.421,0,2.747-0.269,3.979-0.806
		c1.231-0.536,2.305-1.263,3.221-2.179l1.469,1.184c-1.105,1.169-2.4,2.077-3.885,2.725s-3.079,0.971-4.784,0.971
		c-1.643,0-3.19-0.308-4.643-0.924c-1.453-0.615-2.717-1.469-3.79-2.558c-1.073-1.09-1.927-2.353-2.558-3.79
		c-0.632-1.437-0.947-2.992-0.947-4.666c0-1.642,0.315-3.189,0.947-4.643c0.631-1.452,1.484-2.716,2.558-3.789
		s2.337-1.927,3.79-2.559c1.452-0.631,3-0.947,4.643-0.947c1.736,0,3.347,0.34,4.832,1.019c1.483,0.68,2.778,1.604,3.884,2.771
		L270.222,129.691z"/>
	<path d="M285.854,124.244h-6.063v24.064h-1.801v-24.018l-5.969-0.047v-1.753h5.969v-9.001h1.801v9.001h6.063V124.244z"/>
	<path d="M290.828,136.371c0.03,1.39,0.314,2.7,0.853,3.932c0.536,1.231,1.263,2.313,2.179,3.245s1.974,1.666,3.174,2.203
		s2.494,0.789,3.885,0.758c1.8-0.031,3.561-0.458,5.282-1.279c1.721-0.821,3.181-2.084,4.382-3.79l1.752,0.947h-0.142
		c-0.727,1.043-1.54,1.936-2.439,2.677c-0.9,0.742-1.848,1.351-2.843,1.824s-2.006,0.821-3.031,1.042
		c-1.027,0.222-2.014,0.348-2.961,0.379c-1.705,0.063-3.292-0.213-4.761-0.829s-2.732-1.46-3.79-2.534
		c-1.059-1.073-1.888-2.337-2.487-3.79c-0.6-1.452-0.899-3.016-0.899-4.689c0-1.642,0.315-3.197,0.947-4.666
		c0.631-1.469,1.484-2.748,2.558-3.837c1.073-1.09,2.337-1.95,3.79-2.582c1.452-0.631,3-0.947,4.643-0.947
		c1.421,0,2.85,0.292,4.287,0.876c1.437,0.585,2.731,1.397,3.885,2.439c1.152,1.043,2.067,2.291,2.747,3.743
		c0.679,1.452,0.955,3.048,0.829,4.784L290.828,136.371z M300.918,126.187c-1.231,0-2.4,0.213-3.506,0.64
		c-1.105,0.426-2.101,1.011-2.984,1.752c-0.885,0.743-1.618,1.619-2.202,2.63c-0.585,1.011-0.987,2.101-1.208,3.269h19.706
		c-0.158-1.043-0.521-2.062-1.09-3.056c-0.568-0.995-1.287-1.879-2.155-2.653c-0.869-0.773-1.871-1.397-3.008-1.871
		S302.149,126.187,300.918,126.187z M299.308,124.007l-1.232-1.468l4.074-3.506l1.231,1.516L299.308,124.007z"/>
</g>
<g>
	<path fill="#B6D365" d="M78.051,94.101c0,0-0.195-7.947,2.363-10.85c2.557-2.902,9.637-2.706,8.553-6.389
		c-1.086-3.682,5.456-5.323,5.456-5.323s6.502-9.264-2.033-8.249c0,0,1.935-1.615,3.382-2.827c1.45-1.21,18.417-13.106,9.505-20.186
		c0,0,6.242-12.872-2.01-13.616c0,0,2.143-8.592-5.264-11.717C98.003,14.944,78.311,85.936,78.051,94.101z"/>
	<path fill="#A1C73C" d="M82.819,35.035c1.24,2.358-13.568,5.136,0.801,17.401l-1.742,3.301c0,0-9.489-0.901-7.662,3.281
		c1.823,4.184,1.823,4.184,1.823,4.184s-2.876,7.163,1.912,11.044c0,0,3.604,4.002-0.412,15.649c0,0,13.921-42.426,20.451-75.147
		c0,0-10.64,2.632-9.384,8.455C88.606,23.204,79.204,28.124,82.819,35.035z"/>
	<path fill="#B6D365" d="M77.708,90.165c0,0-3.483-6.498-2.367-9.831c1.119-3.331,7.642-5.749,5.123-8.398
		c-2.517-2.648,2.744-6.392,2.744-6.392s2.063-10.026-5.272-6.076c0,0,1.083-2.04,1.901-3.57c0.813-1.53,11.295-17.546,0.249-20.151
		c0,0,0.323-12.912-7.487-10.525c0,0-1.543-10.635-12.447-8.584C60.153,16.636,74.549,83.318,77.708,90.165z"/>
	<path fill="#B6D365" d="M76.664,93.616c0,0-6.553-3.377-7.523-6.751c-0.974-3.378,3.022-9.071-0.555-9.823
		c-3.574-0.75-1.363-6.819-1.363-6.819s-3.997-9.423-7.794-2.01c0,0-0.264-2.294-0.464-4.018
		c-0.196-1.719-0.661-20.857-11.23-16.731c0,0-7.065-10.815-12.141-4.414c0,0-5.809-5.57-12.356-0.912
		C23.237,42.138,70.178,89.773,76.664,93.616z"/>
	<path fill="#A1C73C" d="M77.708,90.165c0,0-11.551-44.167-17.555-73.529c0,0-5.633-2.669-9.44,5.447
		c-4.14,8.818,2.264,13.938,2.264,13.938s-9.129,6.439-0.982,9.972c2.37,1.029-10.55,9.69,8.175,11.472l0.358,3.348
		c0,0-8.42,4.191-4.599,6.371c3.82,2.183,2.737,4.223,2.737,4.223s2.611,4.771,8.736,5.21
		C67.401,76.616,74.661,79.435,77.708,90.165z"/>
	<path fill="#A1C73C" d="M31.319,63.461c2.583,0.038-3.182,13.358,14.551,7.083l1.738,2.888c0,0-5.871,7.346-1.487,7.715
		c4.384,0.37,4.384,0.37,4.384,0.37s4.253,5.534,9.99,3.353c0,0,5.201-1.16,12.481,7.294c0,0-26.887-30.227-49.902-50.105
		c0,0-3.628,9.857,1.775,11.418C24.85,53.477,23.75,63.34,31.319,63.461z"/>
	<path fill="#EB0046" d="M76.752,87.042c0,0-30.63,3.785-24.1,35.534c1.739,8.454,3.256,14.382,26.623,23.759
		c0,0,1.888,3.966,6.307,9.459l-1.195-10.145c0,0,31.044-7.093,26.112-33.314C106.836,92.858,90.913,84.086,76.752,87.042z"/>
	
		<ellipse transform="matrix(-0.9998 0.0177 -0.0177 -0.9998 189.4143 222.9784)" fill="#F03657" cx="93.721" cy="112.327" rx="8.333" ry="10.65"/>
</g>
<g>
</g>
<g>
</g>
<g>
</g>
<g>
</g>
<g>
</g>
<g>
</g>
</svg>
