<?xml version="1.0" encoding="utf-8"?>
<!-- Generator: Adobe Illustrator 16.0.0, SVG Export Plug-In . SVG Version: 6.00 Build 0)  -->
<!DOCTYPE svg PUBLIC "-//W3C//DTD SVG 1.1//EN" "http://www.w3.org/Graphics/SVG/1.1/DTD/svg11.dtd">
<svg version="1.1" xmlns="http://www.w3.org/2000/svg" xmlns:xlink="http://www.w3.org/1999/xlink" x="0px" y="0px" width="1600px"
	 height="1600px" viewBox="0 0 1600 1600" enable-background="new 0 0 1600 1600" xml:space="preserve">
<g id="Calque_2">
</g>
<g id="Calque_1">
	<g>
		<path fill="#FFFFFF" d="M1079.766,974.759c0,0,15.2,26.447,31.073,38.46c18.331,13.878,33.892,3.223,33.892,3.223l1.681,11.166
			c0,0-34.842,24.047-67.376-24.743L1079.766,974.759z"/>
	</g>
	<path fill="#FFFFFF" d="M1186.146,1020.151l-5.565,11.839c36.071,133.917,203.312,29.056,203.312,29.056
		C1267.69,919.963,1186.146,1020.151,1186.146,1020.151z M1294.578,1041.323c-2.562-0.962-6.156-2.562-10.632-3.931
		c-2.227-0.695-4.568-1.635-7.131-2.377c-2.562-0.707-5.252-1.472-8.059-2.261c-2.806-0.603-5.728-1.229-8.695-1.878
		c-2.969-0.533-6.018-0.951-9.056-1.392c-3.061-0.231-6.11-0.673-9.125-0.73c-3.026-0.058-5.994-0.29-8.881-0.104
		c-5.763,0.047-11.12,0.719-15.699,1.368c-9.218,1.415-15.189,3.606-15.189,3.606s1.299-0.916,3.769-2.191
		c2.516-1.171,6.122-2.934,10.736-4.256c4.615-1.333,10.134-2.585,16.14-3.025c2.991-0.325,6.099-0.371,9.275-0.349
		c3.166,0,6.354,0.406,9.566,0.592c3.188,0.521,6.365,1.009,9.449,1.635c3.072,0.742,6.075,1.577,8.951,2.389
		c2.817,1.043,5.53,2.04,8.093,2.991c2.574,0.997,4.858,2.249,7.003,3.27c4.348,1.96,7.571,4.383,9.948,5.774
		c2.33,1.484,3.629,2.389,3.629,2.389S1297.188,1042.286,1294.578,1041.323z"/>
	<path fill="#FFFFFF" d="M1134.249,1020.743c1.09,1.554,5.31,9.646,5.31,9.646c67.921,33.184,90.102-76.442,90.102-76.442
		C1124.254,949.981,1127.732,1011.606,1134.249,1020.743z M1201.914,975.548c-1.901,0.974-4.649,2.249-7.745,4.127
		c-1.554,0.939-3.281,1.832-5.031,2.945c-1.728,1.113-3.549,2.296-5.427,3.502c-1.797,1.345-3.664,2.701-5.542,4.093
		c-1.832,1.461-3.652,3.038-5.449,4.545c-1.717,1.658-3.548,3.212-5.102,4.939c-1.577,1.704-3.247,3.327-4.604,5.09
		c-2.934,3.374-5.299,6.841-7.258,9.832c-3.907,6.053-5.682,10.655-5.682,10.655s0.116-1.217,0.661-3.304
		c0.591-2.076,1.438-5.079,3.037-8.418c1.577-3.374,3.664-7.212,6.493-10.922c1.345-1.902,2.898-3.757,4.545-5.565
		c1.624-1.832,3.502-3.502,5.265-5.265c1.913-1.576,3.826-3.153,5.773-4.638c2.018-1.391,4.012-2.713,5.96-3.953
		c2.052-1.125,4.023-2.169,5.913-3.188c1.878-0.986,3.78-1.646,5.449-2.389c3.386-1.508,6.436-2.146,8.453-2.806
		c2.063-0.604,3.258-0.882,3.258-0.882S1203.793,974.527,1201.914,975.548z"/>
	<g>
		<path fill="#FFFFFF" d="M377.964,747.447c-0.22,2.934-0.318,5.241-0.318,6.917c-2.325,23.496-13.113,42.679-32.419,57.572
			c-17.403,13.206-37.229,19.827-59.468,19.827c-10.481,0-25.787-0.823-45.938-2.517v89.997h-15.722V666.581
			c33.774-2.73,54.332-4.104,61.66-4.104c25.172-1.878,46.053,4.006,62.628,17.624c9.224,7.548,15.838,14.69,19.809,21.392
			c5.664,9.247,8.824,20.68,9.45,34.297c0,2.528,0.099,4.209,0.318,5.038C377.964,742.509,377.964,744.711,377.964,747.447z
			 M361.599,737.998c-1.258-18.882-8.499-33.775-21.711-44.68c-14.47-11.739-31.369-16.98-50.668-15.728
			c-13.201,0-29.688,1.055-49.399,3.142v69.852c0,1.252,0,2,0,2.203c-0.202,2.934-0.202,5.872,0,8.806c0,1.067,0,1.901,0,2.528
			v49.393c27.073,2.104,43.526,3.142,49.399,3.142c15.942,1.067,31.682-4.823,47.207-17.611
			c13.415-10.702,21.49-24.848,24.238-42.472c0.406-3.159,0.713-5.89,0.934-8.197C361.802,743.354,361.802,739.876,361.599,737.998z
			"/>
		<path fill="#FFFFFF" d="M246.354,925.761h-28.789V660.547l6.006-0.476c34.331-2.766,54.691-4.122,62.188-4.122
			c2.747-0.221,5.901-0.342,8.991-0.342c22.645,0,42.082,6.551,57.77,19.455c9.908,8.094,16.864,15.659,21.294,23.108
			c6.174,10.059,9.682,22.645,10.359,37.334c0,1.966,0.018,3.154,0.14,3.85l0.168,1.473v6.62c-0.203,3.2-0.308,5.34-0.308,6.917
			c-2.51,25.885-14.261,46.783-34.94,62.743c-18.539,14.064-39.879,21.184-63.474,21.184c-9.381,0-22.609-0.649-39.404-1.959
			V925.761z M230.626,912.705h2.685v-90.554l7.055,0.592c19.815,1.646,35.098,2.492,45.394,2.492
			c20.696,0,39.352-6.226,55.537-18.487c17.926-13.844,27.712-31.195,29.851-53.027c-0.035-1.154,0.069-3.612,0.308-6.748
			l-0.035-5.496c-0.203-1.345-0.308-3.125-0.308-5.688c-0.573-12.146-3.426-22.644-8.481-30.87
			c-3.629-6.104-9.803-12.72-18.383-19.763c-15.2-12.499-34.708-17.926-57.979-16.163c-7.09,0.018-25.647,1.223-55.643,3.611
			V912.705z M292.849,823.311L292.849,823.311c-1.339,0-2.696-0.046-4.041-0.127c-5.745,0-22.012-1.032-49.491-3.154l-6.006-0.475
			v-57.962c-0.221-2.765-0.221-6.04,0-9.264v-1.745V674.86l5.832-0.609c19.867-2.122,36.708-3.188,50.077-3.188
			c1.594-0.121,3.576-0.186,5.53-0.186c18.47,0,35.045,5.85,49.26,17.369c14.62,12.093,22.725,28.667,24.099,49.329
			c0.227,1.982,0.227,5.594,0.018,11.072c-0.255,2.714-0.574,5.531-0.997,8.771c-3.003,19.352-11.96,35.027-26.65,46.732
			C325.11,816.841,309.046,823.311,292.849,823.311z M246.354,807.473c23.206,1.769,37.606,2.667,42.865,2.667
			c1.507,0.087,2.579,0.116,3.629,0.116c13.096,0,26.343-5.479,39.421-16.25c12.297-9.804,19.438-22.354,21.932-38.437
			c0.389-2.916,0.695-5.548,0.898-7.785c0.237-5.82,0.104-8.191,0-9.073c-1.153-17.438-7.496-30.552-19.369-40.354
			c-13.229-10.736-28.359-15.456-46.07-14.25c-11.978,0-26.43,0.847-43.306,2.527v66.153c-0.203,3.09-0.203,5.733-0.018,8.348
			L246.354,807.473z"/>
	</g>
	<g>
		<path fill="#FFFFFF" d="M554.479,760.66c16.761,18.655,25.154,40.998,25.154,67.011c0,29.798-7.391,53.079-22.168,69.856
			c-14.789,16.777-35.3,25.172-61.521,25.172c-25.178,0-45.41-8.487-60.709-25.484c-15.34-16.998-22.986-40.176-22.986-69.544
			c0-26.013,8.447-48.355,25.323-67.011c16.898-18.68,36.354-28.007,58.372-28.007C518.183,732.653,537.686,741.98,554.479,760.66z
			 M545.03,885.411c12.586-14.354,18.882-33.612,18.882-57.74c0-21.602-6.817-40.21-20.459-55.852
			c-13.635-15.624-29.381-23.444-47.189-23.444c-17.844,0-33.566,7.82-47.19,23.444c-13.635,15.642-20.458,34.25-20.458,55.852
			c0,24.557,6.174,43.896,18.557,58.054s28.737,21.229,49.092,21.229C516.177,906.954,532.444,899.789,545.03,885.411z"/>
		<path fill="#FFFFFF" d="M495.944,929.239c-26.992,0-49.039-9.322-65.562-27.665c-16.371-18.134-24.667-43.004-24.667-73.903
			c0-27.555,9.096-51.573,27.021-71.405c18.099-20.001,39.375-30.141,63.207-30.141c24.07,0,45.376,10.14,63.388,30.158
			c17.81,19.826,26.836,43.851,26.836,71.388c0,31.281-8.006,56.233-23.815,74.17C546.341,920.01,523.998,929.239,495.944,929.239z
			 M495.944,739.187c-20.272,0-37.78,8.446-53.521,25.851c-15.907,17.589-23.646,38.082-23.646,62.634
			c0,27.571,7.159,49.485,21.287,65.161c14.151,15.711,32.419,23.34,55.88,23.34c24.477,0,42.999-7.514,56.616-22.969
			c13.642-15.468,20.546-37.521,20.546-65.532c0-24.569-7.688-45.062-23.496-62.651
			C533.992,747.633,516.415,739.187,495.944,739.187z M496.264,913.493c-22.221,0-40.401-7.907-54.008-23.479
			c-13.386-15.316-20.186-36.279-20.186-62.344c0-23.132,7.432-43.364,22.087-60.142c14.858-17.032,32.396-25.664,52.106-25.664
			s37.253,8.632,52.111,25.664c14.656,16.795,22.064,37.027,22.064,60.142c0,25.635-6.898,46.517-20.505,62.042
			C536.126,905.493,518.062,913.493,496.264,913.493z M496.264,754.909c-15.995,0-29.821,6.938-42.285,21.2
			c-12.673,14.54-18.848,31.398-18.848,51.562c0,22.806,5.717,40.882,16.963,53.764c11.16,12.789,25.612,19.003,44.17,19.003
			c18.116,0,32.471-6.318,43.851-19.328c11.449-13.078,17.265-31.062,17.265-53.438c0-20.163-6.157-37.021-18.842-51.562
			C526.085,761.848,512.258,754.909,496.264,754.909z"/>
	</g>
	<g>
		<path fill="#FFFFFF" d="M694.49,906.954v13.542c-12.383,0-20.354-0.22-23.92-0.626c-9.855-1.043-17.096-3.56-21.711-7.56
			c-7.548-6.504-12.261-17.09-14.146-31.769c-0.644-5.879-1.171-22.238-1.576-49.092c-0.424-26.436-0.424-52.859,0-79.289H606.69
			v-15.74h26.447v-30.517h15.722v30.517h40.593v15.74h-40.593c-0.423,26.001-0.423,52.123,0,78.35
			c0.203,24.326,0.527,38.482,0.951,42.472c1.461,13.844,5.142,23.397,11.009,28.638
			C665.637,905.609,676.866,907.383,694.49,906.954z"/>
		<path fill="#FFFFFF" d="M701.023,927.036h-6.533c-12.72,0-20.795-0.232-24.662-0.685c-11.264-1.206-19.542-4.186-25.241-9.113
			c-8.754-7.524-14.267-19.606-16.354-35.873c-0.678-6.273-1.199-22.528-1.629-49.822c-0.388-24.151-0.423-48.628-0.099-72.854
			H600.18v-28.801h26.424v-30.517h28.79v30.517h40.592v28.801h-40.68c-0.318,23.752-0.307,47.839,0.088,71.707
			c0.255,29.948,0.643,39.316,0.898,41.891c1.27,11.966,4.342,20.406,8.869,24.465c1.259,1.021,6.499,3.757,24.413,3.757
			c1.524,0,3.118-0.023,4.765-0.07l6.685-0.162V927.036z M613.241,745.627h26.528l-0.122,6.633c-0.405,26.244-0.405,52.842,0,79.074
			c0.43,26.54,0.934,42.831,1.548,48.512c1.641,12.836,5.682,22.123,11.925,27.525c3.577,3.085,9.664,5.102,18.146,6.007
			c1.972,0.231,6.43,0.486,16.696,0.556v-0.394c-15.826-0.14-25.786-2.343-31.299-6.899c-7.38-6.585-11.688-17.322-13.352-32.975
			c-0.44-4.243-0.76-18.331-0.979-43.097c-0.424-26.129-0.424-52.559,0-78.513l0.116-6.43h40.477v-2.678h-40.593v-30.518h-2.685
			v30.518h-26.406V745.627z"/>
	</g>
	<g>
		<path fill="#FFFFFF" d="M876.977,737.998v180.296h-15.733v-20.453v-11.015c-4.197,6.296-9.855,12.592-16.986,18.876
			c-14.69,12.8-31.363,19.188-50.024,19.188c-22.662,0-41.219-9.426-55.688-28.302c-13.229-17.415-19.833-37.868-19.833-61.358
			c0-6.099,0.527-12.291,1.565-18.575c4.203-26.006,15.415-46.986,33.671-62.918c16.991-15.113,37.45-21.814,61.37-20.151
			C831.874,733.807,852.431,735.285,876.977,737.998z M861.243,832.714v-80.878c-27.05-2.087-43.538-3.136-49.404-3.136
			c-18.232-1.253-34.709,4.614-49.394,17.623c-8.603,7.549-15.403,18.135-20.44,31.77c-4.615,12.383-6.939,24.975-6.939,37.764
			c0,15.942,3.356,29.682,10.075,41.219c12.586,21.183,28.528,31.769,47.834,31.769c15.305,0,29.774-5.866,43.433-17.612
			C852.756,876.75,861.034,857.236,861.243,832.714z"/>
		<path fill="#FFFFFF" d="M794.232,931.419c-24.696,0-45.173-10.378-60.878-30.865c-14.046-18.505-21.171-40.488-21.171-65.323
			c0-6.436,0.557-13.056,1.663-19.647c4.406-27.392,16.471-49.868,35.805-66.768c18.221-16.197,40.441-23.542,66.106-21.728
			c16.302,0.191,37.265,1.681,61.949,4.429l5.798,0.644v192.661h-28.778V904.82c-1.947,1.937-3.988,3.873-6.168,5.786
			C832.697,924.438,814.424,931.419,794.232,931.419z M808.244,739.876c-19.427,0-35.775,6.128-49.955,18.731
			c-17.032,14.876-27.636,34.737-31.555,59.098c-0.997,5.931-1.49,11.82-1.49,17.525c0,21.913,6.227,41.229,18.488,57.393
			c13.264,17.322,29.786,25.74,50.5,25.74c17.177,0,32.146-5.751,45.723-17.577c6.633-5.867,12.001-11.78,15.861-17.589
			l11.966-17.914v46.471h2.667V743.865c-21.729-2.29-40.291-3.542-55.214-3.745C812.615,739.946,810.412,739.876,808.244,739.876z
			 M792.975,915.372c-21.677,0-39.659-11.757-53.445-34.958c-7.299-12.533-10.98-27.514-10.98-44.558
			c0-13.52,2.464-26.992,7.328-40.054c5.397-14.586,12.876-26.151,22.256-34.396c15.948-14.099,34.146-20.609,54.158-19.224
			c5.38-0.099,21.96,1.021,49.462,3.159l6.029,0.458v86.913c-0.231,26.413-9.345,47.735-27.073,63.411
			C825.868,908.914,809.821,915.372,792.975,915.372z M807.073,755.06c-14.858,0-28.041,5.275-40.303,16.151
			c-7.739,6.8-14.012,16.586-18.645,29.143c-4.324,11.601-6.527,23.537-6.527,35.503c0,14.702,3.084,27.456,9.188,37.938
			c11.403,19.177,25.207,28.522,42.188,28.522c13.826,0,26.632-5.241,39.143-16.023c14.98-13.265,22.401-30.83,22.609-53.637
			v-74.762c-23.259-1.763-37.659-2.661-42.888-2.661C809.938,755.111,808.499,755.06,807.073,755.06z"/>
	</g>
	<g>
		<path fill="#FFFFFF" d="M1130.26,827.357v1.577c0,2.516,0.325,5.345,0.951,8.498c3.965,24.743,11.966,42.367,23.908,52.849
			c13.426,11.757,29.148,17.624,47.201,17.624c12.789,0.638,24.325-0.418,34.599-3.154c3.791-0.823,12.487-3.131,26.122-6.91
			c0,4.614,0,8.487,0,11.641c0,3.154,0,4.406,0,3.78c-13.427,3.977-27.05,6.817-40.905,8.487c-5.67,0.626-11.119,1.055-16.36,1.252
			c-24.116,0.231-43.943-6.493-59.469-20.128c-17.832-15.746-28.522-38.378-32.094-67.944v-6.62c0-2.726,0-5.044,0-6.923
			c0-1.46,0.104-2.828,0.325-4.087c2.087-26.006,12.893-47.515,32.395-64.512c14.69-13.009,31.375-19.508,50.02-19.508
			c3.583,0,7.246,0.307,11.038,0.95c20.557,3.363,36.905,14.673,49.068,33.979c10.922,17.403,15.942,37.131,15.107,59.149H1130.26z
			 M1130.886,811.937h124.607c-1.264-11.583-4.511-21.711-9.751-30.343c-12.383-21.514-28.326-32.268-47.84-32.268
			c-15.096,0-29.357,5.907-42.783,17.711C1141.692,778.846,1133.622,793.803,1130.886,811.937z"/>
		<path fill="#FFFFFF" d="M1204.674,929.54c-25.16,0-46.239-7.327-62.68-21.763c-18.992-16.754-30.518-41.01-34.251-72.083
			l-0.058-0.766v-13.543c0-1.854,0.15-3.582,0.405-5.177c2.157-27.085,13.81-50.257,34.553-68.338
			c15.814-13.995,34.1-21.12,54.309-21.12c3.942,0,8.012,0.354,12.104,1.032c22.354,3.646,40.384,16.082,53.532,36.946
			c11.571,18.47,16.975,39.606,16.093,62.883l-0.231,6.272h-141.257c0.128,0.73,0.255,1.496,0.418,2.25
			c3.757,23.352,11.072,39.839,21.81,49.254c12.302,10.76,26.331,16,42.899,16c2.608,0.116,4.87,0.162,7.084,0.162
			c9.38,0,18.088-1.031,25.856-3.107c3.838-0.846,12.267-3.084,26.041-6.898l8.278-2.284v28.87l-4.684,1.392
			c-13.659,4.047-27.793,6.98-41.973,8.708c-5.774,0.649-11.443,1.09-16.87,1.31H1204.674z M1120.753,834.512
			c3.385,27.618,13.449,48.975,29.879,63.479c13.96,12.256,32.163,18.505,54.042,18.505l1.056-0.012
			c4.916-0.185,10.261-0.614,15.688-1.229c11.791-1.426,23.595-3.745,35.097-6.922v-1.937c-9.276,2.551-15.143,4.081-18.169,4.73
			c-10.562,2.829-22.899,3.966-36.349,3.293c-0.012,0-0.035,0-0.035,0c-19.271,0-36.569-6.458-51.132-19.212
			c-13.079-11.49-21.856-30.575-26.088-56.744c-0.649-3.339-1.009-6.62-1.009-9.53v-8.104h141.976
			c-0.325-18.123-5.067-34.628-14.181-49.161c-11.212-17.78-25.798-27.938-44.615-30.992c-3.409-0.574-6.748-0.864-9.96-0.864
			c-17.16,0-32.105,5.85-45.683,17.861c-18.389,16.013-28.268,35.671-30.238,60.147c-0.209,1.478-0.278,2.475-0.278,3.564V834.512z
			 M1262.774,818.465h-139.471l1.136-7.496c2.945-19.606,11.804-36.03,26.366-48.837c14.586-12.823,30.424-19.334,47.097-19.334
			c21.926,0,39.921,11.96,53.486,35.521c5.658,9.311,9.229,20.424,10.586,32.923L1262.774,818.465z M1138.84,805.409h109.059
			c-1.542-7.636-4.139-14.487-7.733-20.441c-11.316-19.63-25.103-29.108-42.263-29.108c-13.589,0-26.169,5.258-38.481,16.082
			C1148.997,781.13,1142.202,792.139,1138.84,805.409z"/>
	</g>
	<g>
		<path fill="#FFFFFF" d="M1380.413,736.114v16.047c-8.395,2.934-16.047,7.345-22.969,13.212
			c-13.845,12.162-22.645,29.891-26.425,53.185c-1.264,7.536-1.89,12.267-1.89,14.156v85.58h-15.733v-182.18h15.733v40.593
			c5.449-9.229,11.942-17.201,19.49-23.92C1357.641,745.036,1368.227,739.471,1380.413,736.114z"/>
		<path fill="#FFFFFF" d="M1335.658,924.821h-28.802V729.58h28.802v27.01c2.725-3.09,5.6-5.988,8.638-8.673
			c9.786-8.429,21.346-14.499,34.39-18.099l8.255-2.29v29.265l-4.371,1.524c-7.583,2.661-14.621,6.72-20.905,12.041
			c-12.533,11.009-20.708,27.601-24.197,49.23c-1.682,10.029-1.809,12.568-1.809,13.125V924.821z M1319.924,911.754h2.679v-79.04
			c0-1.588,0.22-4.742,1.971-15.247c4-24.661,13.612-43.867,28.546-56.992c6.377-5.397,13.311-9.67,20.766-12.795v-2.527
			c-7.826,3.09-14.853,7.299-21.009,12.591c-6.922,6.157-13.056,13.688-18.134,22.268l-12.14,20.581v-57.95h-2.679V911.754z"/>
	</g>
	<path fill="#FFFFFF" d="M1080.763,1014.273l-0.383-82.229v-0.766h0.093c0.232-14.864,0.232-31.34,0-48.859V730.855l-5.866-0.608
		c-24.604-2.527-45.659-3.919-62.193-4.11c-25.601-1.814-47.955,5.514-66.391,21.717c-19.571,16.894-31.723,39.485-36.198,67.324
		c-0.858,6.545-1.299,13.072-1.299,19.427c0,25.044,7.107,47.12,21.172,65.625c15.699,20.487,36.291,30.888,61.185,30.888
		c20.209,0,38.482-7.003,54.344-20.824c2.272-2.017,4.429-4.046,6.47-6.075v25.983l-0.093,23.989
		c-17.646-14.493-39.908-20.708-57.045-20.708c-47.7,0-86.496,38.796-86.496,86.495c0,47.7,38.796,86.496,86.496,86.496
		s86.519-38.796,86.519-86.496C1081.076,1018.007,1080.867,1016.175,1080.763,1014.273z M1051.695,832.019
		c-0.209,22.829-7.722,40.5-22.98,53.996c-12.499,10.968-25.276,16.302-39.097,16.302c-17.16,0-31.073-9.531-42.506-29.16
		c-6.087-10.447-9.171-23.225-9.171-37.926c0-11.978,2.191-24.024,6.504-35.775c4.638-12.354,11.015-22.175,18.957-29.16
		c12.418-10.823,25.833-16.134,41.185-16.134c1.287,0,2.585,0.052,3.919,0.121c5.275,0,19.838,0.812,43.375,2.406
		C1052.078,767.953,1052.02,793.194,1051.695,832.019z M994.558,1083.632c-35.086,0-63.643-28.546-63.643-63.654
		c0-35.085,28.557-63.653,63.643-63.653c17.716,0,63.665,11.455,63.665,63.653
		C1058.223,1055.086,1029.654,1083.632,994.558,1083.632z"/>
	<path fill="#FFFFFF" d="M1088.705,625.891c0,0-4.73,27.601-41.717,13.333c0,0,20.406-37.624,41.497-16.186L1088.705,625.891z"/>
	<path fill="#FFFFFF" d="M1085.574,648.297c0,0,12.477,8.261-2.458,23.259c0,0-13.982-18.082,1.044-23.77L1085.574,648.297z"/>
	<path fill="#FFFFFF" d="M1065.156,652.303c0,0,13.474,17.676-14.782,31.415c0,0-10.83-32.197,13.009-32.824L1065.156,652.303z"/>
	<text transform="matrix(1 0 0 1 213.3203 1095.0469)" fill="#FFFFFF" font-family="'PoetsenOne-Regular'" font-size="150.1555">Connecté</text>
	<path fill="#FFFFFF" d="M1372.135,535.499c-20.593-58.628-85.059-91.904-154.324-51.451
		c-58.054,33.874-32.743,78.896-28.708,85.324l19.804,53.603l-1.891,0.695l-66.425-17.271
		c-16.499-18.557-19.954-16.215-19.954-16.215c-29.879,20.69-12.29,62.454-7.235,61.643c5.079-0.782,27.955-11.397,27.955-11.397
		l93.012,51.428l127.389-47.068l-5.275-14.267C1379.312,609.757,1387.021,577.918,1372.135,535.499z M1204.859,563.35
		c-4.673-10.198-14.215-39.185,15.154-60.93c36.198-26.801,107.343-30.042,132.225,31.468c19.281,47.694,5.321,71.579-1.937,79.927
		l-33.891-91.684L1204.859,563.35z"/>
</g>
</svg>
