<?xml version="1.0" encoding="utf-8"?>
<!-- Generator: Adobe Illustrator 16.0.0, SVG Export Plug-In . SVG Version: 6.00 Build 0)  -->
<!DOCTYPE svg PUBLIC "-//W3C//DTD SVG 1.1//EN" "http://www.w3.org/Graphics/SVG/1.1/DTD/svg11.dtd">
<svg version="1.1" id="Calque_1" xmlns="http://www.w3.org/2000/svg" xmlns:xlink="http://www.w3.org/1999/xlink" x="0px" y="0px"
	 width="300px" height="300px" viewBox="0 0 300 300" enable-background="new 0 0 300 300" xml:space="preserve">
<path fill="none" stroke="#E63C11" stroke-width="0.5" stroke-miterlimit="10" d="M299.884,262.185
	c0,20.192-16.467,36.566-36.797,36.566H37.79C17.467,298.751,1,282.377,1,262.185V38.235C1,18.042,17.467,1.667,37.79,1.667h225.297
	c20.33,0,36.797,16.375,36.797,36.568V262.185z"/>
<g>
	<path fill="#63A930" d="M121.934,148.23c0,0-10.025,12.737-18.935,15.51c-8.917,2.771-10.032,8.309-16.154,10.519
		c-6.135,2.204-22.289,2.216-28.976-2.765c-6.678-4.982-7.235-22.709,5.014-32.681c0,0-15.603-13.284-10.589-27.123
		c5.019-13.838,12.813-20.491,28.416-24.919c0,0,7.801-9.417,12.257-19.381c4.455-9.965,16.718-10.527,42.34-1.664
		c25.627,8.856,26.178-6.098,37.328,1.102c11.139,7.207,12.263,21.046,8.908,24.372c-3.337,3.319-6.671,16.617-15.595,16.617
		c-8.918,0-15.039,8.303-21.174,13.285c-6.128,4.982-6.128,0.555-12.815,3.873C125.28,128.293,123.607,144.905,121.934,148.23z"/>
	<path fill="#5DA032" d="M128.069,138.266c0,0,13.365,5.529,12.8,14.947c-0.552,9.411,0,14.948,11.149,16.618
		c11.139,1.663,17.827-3.319,28.967,3.326c11.141,6.638,4.462,15.493,17.276,23.248c12.809,7.754,32.308,1.103,38.436-6.646
		c6.129-7.746,0.559-18.827-3.897-31.565c-4.461-12.729,16.72-25.465,11.701-35.431c-5.015-9.965-17.829-16.624-22.284-26.575
		c-4.462-9.966-11.146-26.589-33.43-15.516c0,0-5.015,9.965-9.476,11.628c-4.454,1.67-16.711-3.88-20.602,16.618
		c0,0-15.038,1.101-19.499,15.5c0,0-9.469-6.638-15.604,6.099C123.607,130.519,124.722,136.603,128.069,138.266z"/>
	<path fill="#4E8531" d="M133.773,155.598c0,0,8.972-4.457,13.684,0.09c4.707,4.547,7.874,6.756,13.791,1.712
		c5.928-5.059,6.311-10.784,14.843-13.583c8.547-2.8,10.208,4.699,20.078,1.524c9.881-3.16,15.2-16.319,13.88-23.014
		c-1.308-6.707-9.66-8.814-18.385-12.243c-8.74-3.452-5.883-20.236-13.39-22.127c-7.524-1.892-16.817,1.767-24.082-0.409
		c-7.278-2.19-19.061-6.223-23.3,10.388c0,0,2.984,7.109,1.854,10.18c-1.143,3.076-9.614,6.958-0.578,18.252
		c0,0-6.226,8.331-0.656,17.165c0,0-7.773,1.92-3.834,10.875C127.679,154.406,131.388,156.582,133.773,155.598z"/>
	<path fill="#63A930" d="M125.28,135.5c0,0-22.846,10.513-21.174,24.913c0,0-20.051-1.662-23.961,10.52
		c0,0-25.064,13.283-21.16,26.029c3.896,12.735,13.923,20.489,31.75,16.608c0,0-2.218,23.811,22.296,18.83
		c0,0,16.154-9.412,21.167,7.191c5.013,16.625,57.37,17.175,59.6-13.838c0,0,16.72-3.881,12.822-20.491
		c0,0,11.135-13.841-5.026-21.039c0,0,8.918-29.894-27.294-32.675c0,0-16.153-17.718-30.077-7.191
		C144.223,144.357,125.28,139.381,125.28,135.5z"/>
	<path fill="#4E8531" d="M136.261,163.304c0,0,2.183,10.97-0.391,16.859c-2.572,5.904-0.153,8.981-1.757,13.182
		c-1.61,4.184-8.917,12.597-14.57,13.83c-5.641,1.22-15.241-6.501-14.954-17.387c0,0-14.063,2.105-19.083-6.764
		c-5.041-8.878-5.007-15.938-0.293-26.062c0,0-1.415-8.323-4.656-15.163c-3.243-6.812,2.015-13.45,18.266-22.791
		c16.264-9.329,8.645-16.382,17.471-18.925c8.827-2.55,16.628,3.132,16.865,6.375c0.244,3.242,5.731,10.997,1.708,15.632
		c-4.03,4.644-2.419,11.593-2.58,17.041c-0.139,5.439-2.482,3.438-3.75,8.414C127.254,152.528,135.272,160.92,136.261,163.304z"/>
	<path fill="#4E8531" d="M131.06,155.799c0,0-4.79,16.645,3.556,22.273c0,0-9.941,9.713-5.285,17.247c0,0-4.35,19.063,4.134,22.799
		c8.471,3.721,17.096,2.009,23.114-9.024c0,0,11.544,11.925,20.002-3.097c0,0,2.348-12.661,13.385-7.761
		c11.016,4.898,34.986-22.106,19.653-37.297c0,0,5.522-10.457-4.998-15.938c0,0-2.267-12.072-13.344-6.908
		c0,0-11.741-18.156-29.59-0.562c0,0-16.634,0.394-17.395,12.41C144.292,149.942,133.103,157.544,131.06,155.799z"/>
	<path fill="#3B682B" d="M141.385,169.812c0,0,0.461,10.886,6.568,12.611c0,0-4.002,7.754,0.287,11.328
		c0,0,1.22,12.246,7.026,12.794c5.808,0.561,10.612-2.163,12.006-9.946c0,0,9.28,4.854,11.331-5.792c0,0-1.131-8.031,6.434-7.276
		c7.559,0.748,16.488-20.11,4.287-26.157c0,0,1.201-7.327-6.17-8.525c0,0-3.76-6.771-9.349-1.498c0,0-10.641-8.538-17.779,5.503
		c0,0-9.857,3.52-7.912,10.844C148.113,163.697,142.946,170.447,141.385,169.812z"/>
	<path fill="#3B682B" d="M113.882,122.688c0,0-5.871,9.202-1.841,14.095c0,0-7.745,4.088-6.288,9.458c0,0-6.032,10.748-1.576,14.504
		c4.441,3.734,9.956,4.239,15.568-1.359c0,0,4.824,9.244,12.625,1.678c0,0,3.688-7.234,9.476-2.329
		c5.772,4.907,25.071-7.158,18.545-19.035c0,0,5.201-5.336-0.167-10.505c0,0,0.792-7.685-6.817-6.528c0,0-3.836-13.048-17.759-5.577
		c0,0-10.123-2.703-12.724,4.421C122.924,121.51,114.809,124.109,113.882,122.688z"/>
	<path fill="#477B2F" d="M146.53,166.117c0,0,3.5,6.14,3.131,10.165c-0.342,4.032,1.715,5.392,1.604,8.205
		c-0.14,2.827-2.81,9.285-5.94,11.137c-3.124,1.848-10.409-0.874-12.41-7.43c0,0-7.977,4.034-12.752-0.271
		c-4.775-4.304-6.169-8.53-5.376-15.501c0,0-2.502-4.698-5.807-8.129c-3.312-3.444-1.499-8.44,6.352-17.22
		c7.843-8.787,1.89-11.503,6.651-14.768c4.769-3.257,10.555-1.401,11.351,0.485c0.787,1.885,5.619,5.432,4.134,9.002
		c-1.478,3.568,0.872,7.394,1.861,10.678c1.011,3.292-0.787,2.55-0.55,5.766C139.007,161.473,145.463,164.904,146.53,166.117z"/>
	<path fill="#477B2F" d="M143.511,162.02c0,0,4.47-4.435,8.193-2.652c3.724,1.787,6.051,2.487,8.582-1.698
		c2.518-4.172,1.61-7.685,6.15-11.045c4.553-3.347,7.026,0.789,12.298-3.05c5.264-3.824,5.814-12.743,3.68-16.478
		c-2.11-3.755-7.528-3.354-13.42-3.68c-5.912-0.34-7.558-10.936-12.416-10.582c-4.874,0.353-9.699,4.379-14.481,4.518
		c-4.77,0.125-12.605,0.035-11.819,10.791c0,0,3.193,3.665,3.131,5.717c-0.063,2.064-4.35,6.056,3.297,11.018
		c0,0-2.042,6.202,3.055,10.38c0,0-4.268,2.683-0.126,7.258C139.635,162.515,142.285,163.081,143.511,162.02z"/>
	<path fill="#477B2F" d="M141.936,162.68c0,0,0.46,10.873,6.568,12.605c0,0-3.995,7.754,0.292,11.33c0,0,1.214,12.243,7.021,12.798
		c5.811,0.556,10.62-2.177,12.008-9.95c0,0,9.278,4.844,11.322-5.795c0,0-1.118-8.029,6.44-7.274
		c7.558,0.748,16.488-20.111,4.295-26.16c0,0,1.192-7.326-6.162-8.523c0,0-3.772-6.771-9.362-1.491c0,0-10.649-8.53-17.779,5.503
		c0,0-9.859,3.513-7.908,10.839C148.67,156.562,143.498,163.31,141.936,162.68z"/>
	<g>
		<g>
			<g>
				<g>
					<g>
						<path fill="#2B4C21" d="M154.897,156.921c-0.008,0.017,0.097,0.01,0.115,0.013
							C154.988,156.904,154.871,156.922,154.897,156.921z"/>
						<polygon fill="#2B4C21" points="154.637,156.685 154.68,156.682 154.572,156.665 						"/>
						<path fill="#2B4C21" d="M154.585,156.467c-0.165,0.072,0.051,0.068,0.001,0.124l-0.037,0.016l0.145-0.014
							C154.657,156.547,154.547,156.514,154.585,156.467z"/>
						<path fill="#2B4C21" d="M154.904,156.207c-0.061,0.035-0.065-0.007-0.009,0.041l0.015-0.012
							C154.907,156.23,154.904,156.223,154.904,156.207z"/>
						<path fill="#2B4C21" d="M154.91,156.236C154.925,156.263,154.958,156.196,154.91,156.236L154.91,156.236z"/>
						<path fill="#2B4C21" d="M154.82,156.129l0.073,0.008c0.034-0.023,0.026-0.06,0.06-0.061
							C154.902,156.054,154.871,156.08,154.82,156.129z"/>
						<path fill="#2B4C21" d="M154.687,156.155l0.032,0.005C154.733,156.149,154.736,156.143,154.687,156.155z"/>
						<path fill="#2B4C21" d="M154.787,156.172l-0.068-0.012c-0.023,0.018-0.075,0.042,0.026,0.007
							C154.696,156.188,154.746,156.172,154.787,156.172z"/>
						<path fill="#2B4C21" d="M154.773,156.203c-0.025,0.034-0.039,0.065-0.11,0.06
							C154.709,156.313,154.824,156.258,154.773,156.203z"/>
						<path fill="#2B4C21" d="M154.405,156.514l-0.043,0.035l0.063-0.001C154.394,156.549,154.458,156.495,154.405,156.514z"/>
						<path fill="#2B4C21" d="M154.783,155.872c-0.033,0.019-0.078,0.065-0.118,0.094l0.051,0.001
							C154.731,155.941,154.737,155.904,154.783,155.872z"/>
						<path fill="#2B4C21" d="M154.665,155.966l-0.075,0.001C154.602,156.001,154.631,155.99,154.665,155.966z"/>
						<polygon fill="#2B4C21" points="154.507,156.239 154.658,156.231 154.5,156.23 						"/>
						<polygon fill="#2B4C21" points="154.69,155.733 154.776,155.7 154.643,155.746 						"/>
						<path fill="#2B4C21" d="M154.608,155.658c0.067-0.033,0.076-0.101,0.123-0.114c-0.031-0.017-0.096,0.005-0.151,0.025
							C154.619,155.566,154.632,155.594,154.608,155.658z"/>
						<path fill="#2B4C21" d="M154.495,155.597c0.021-0.003,0.051-0.016,0.085-0.027
							C154.559,155.571,154.532,155.578,154.495,155.597z"/>
						<path fill="#2B4C21" d="M154.567,155.901c0.018-0.016,0.063-0.056,0.068-0.089l-0.076,0.076L154.567,155.901z"/>
						<path fill="#2B4C21" d="M154.557,155.891l0.003-0.002c-0.007-0.014-0.014-0.024-0.017-0.03
							C154.545,155.862,154.549,155.871,154.557,155.891z"/>
						<path fill="#2B4C21" d="M154.569,155.904l-0.002-0.003C154.561,155.909,154.558,155.911,154.569,155.904z"/>
						<path fill="#2B4C21" d="M154.547,156.11c-0.063,0.011-0.137,0.01-0.195,0.091C154.421,156.176,154.454,156.128,154.547,156.11
							z"/>
						<path fill="#2B4C21" d="M154.472,155.996l0.001,0.046c0.023-0.016,0.054-0.045,0.084-0.052L154.472,155.996z"/>
						<polygon fill="#2B4C21" points="154.433,156.001 154.472,155.996 154.471,155.979 						"/>
						<path fill="#2B4C21" d="M154.472,155.722c-0.047,0.018-0.063,0.006-0.083-0.006c0.001,0.032,0.008,0.058,0.023,0.075
							C154.439,155.771,154.491,155.739,154.472,155.722z"/>
						<path fill="#2B4C21" d="M154.507,155.811H154.5C154.494,155.818,154.493,155.822,154.507,155.811z"/>
						<polygon fill="#2B4C21" points="154.229,155.57 154.219,155.587 154.231,155.573 						"/>
						<path fill="#2B4C21" d="M154.399,155.807c-0.004,0.027,0.022,0.018,0.054,0.004c-0.017-0.003-0.031-0.009-0.041-0.02
							C154.399,155.8,154.392,155.807,154.399,155.807z"/>
						<path fill="#2B4C21" d="M154.414,155.586c-0.007,0.024-0.012,0.045-0.018,0.063
							C154.415,155.618,154.436,155.568,154.414,155.586z"/>
						<path fill="#2B4C21" d="M154.519,155.787h0.006C154.538,155.768,154.529,155.775,154.519,155.787z"/>
						<path fill="#2B4C21" d="M154.519,155.787c-0.018,0.003-0.043,0.015-0.065,0.023c0.014,0.003,0.028,0.004,0.047,0
							C154.505,155.805,154.512,155.796,154.519,155.787z"/>
						<path fill="#2B4C21" d="M153.764,156.076c0.06-0.079,0.144-0.129,0.098-0.029c0.067-0.041,0.271-0.296,0.357-0.46
							c-0.028,0.033-0.054,0.063-0.119,0.086c-0.021,0.052-0.019,0.147-0.099,0.198c-0.065,0.013-0.005-0.049,0.01-0.104
							c-0.063,0.108-0.15,0.109-0.248,0.264l0.063-0.032C153.809,156.021,153.772,156.05,153.764,156.076z"/>
						<path fill="#2B4C21" d="M154.271,155.644l0.021,0.002c-0.003-0.025,0.013-0.063,0.043-0.139
							c-0.055,0.018-0.082,0.043-0.104,0.066l0.055,0.063L154.271,155.644z"/>
						<path fill="#2B4C21" d="M154.349,155.694c-0.085,0.066-0.144,0.078-0.208,0.176c0.037,0.021,0.084-0.043,0.136-0.057
							c-0.067-0.037,0.058-0.025,0.064-0.11c0.023-0.001,0.036,0.006,0.048,0.013c0.001-0.021,0.003-0.042,0.008-0.066l-0.003,0.007
							l0,0l-0.001,0.001c-0.007,0.012-0.013,0.019-0.01,0.01l-0.002,0.001L154.349,155.694c0-0.032,0.019-0.023,0.032-0.026
							l0.012-0.011l0.001-0.001c0.001-0.003-0.101-0.011-0.101-0.011C154.295,155.668,154.313,155.678,154.349,155.694z"/>
						<path fill="#2B4C21" d="M154.139,156.294l0.02-0.015C154.146,156.283,154.138,156.287,154.139,156.294z"/>
						<path fill="#2B4C21" d="M154.182,156.238c0.015-0.004,0.053-0.024,0.05-0.006c-0.021,0.027-0.044,0.027-0.073,0.047
							c0.028-0.009,0.08-0.015,0.111-0.066l-0.015,0.004c0.02-0.04,0.113-0.146,0.127-0.15
							C154.308,156.13,154.255,156.176,154.182,156.238z"/>
						<path fill="#2B4C21" d="M154.262,155.999l-0.076-0.008l-0.053,0.081l0.042-0.037
							C154.177,156.072,154.226,156.023,154.262,155.999z"/>
						<polygon fill="#2B4C21" points="154.257,155.523 154.335,155.441 154.204,155.541 						"/>
						<polygon fill="#2B4C21" points="154.179,155.479 154.24,155.401 154.186,155.435 						"/>
						<path fill="#2B4C21" d="M152.58,157.226l0.027-0.01L152.58,157.226z"/>
						<path fill="#2B4C21" d="M152.563,157.182l-0.044,0.021C152.545,157.192,152.563,157.185,152.563,157.182z"/>
						<path fill="#2B4C21" d="M152.148,155.403c-0.072-0.065-0.182-0.167-0.117-0.076l0.066,0.087
							C152.105,155.388,152.125,155.39,152.148,155.403z"/>
						<path fill="#2B4C21" d="M151.948,156.707l0.032,0.001c-0.035-0.012-0.067-0.023-0.098-0.034L151.948,156.707z"/>
						<path fill="#2B4C21" d="M152.388,156.805l-0.07,0.003L152.388,156.805z"/>
						<path fill="#2B4C21" d="M152.82,157.318l0.066-0.089C152.879,157.226,152.852,157.273,152.82,157.318z"/>
						<path fill="#2B4C21" d="M153.346,155.185c-0.019-0.044-0.037-0.064-0.055-0.071
							C153.315,155.179,153.325,155.273,153.346,155.185z"/>
						<path fill="#2B4C21" d="M151.571,157.778c0.023,0.001,0.045-0.007,0.065-0.019
							C151.615,157.759,151.594,157.763,151.571,157.778z"/>
						<path fill="#2B4C21" d="M153.219,155.107c0.005,0.011,0.007,0.017,0.011,0.026c0.02-0.017,0.04-0.029,0.062-0.021
							C153.274,155.065,153.248,155.034,153.219,155.107z"/>
						<path fill="#2B4C21" d="M153.574,157.244l0.012,0.006C153.574,157.241,153.573,157.242,153.574,157.244z"/>
						<path fill="#2B4C21" d="M154.745,157.155c0.006,0.009,0.005,0.021,0.005,0.033
							C154.758,157.184,154.758,157.174,154.745,157.155z"/>
						<path fill="#2B4C21" d="M153.895,155.256C153.914,155.258,153.902,155.246,153.895,155.256L153.895,155.256z"/>
						<path fill="#2B4C21" d="M153.776,155.678c-0.009,0.01-0.018,0.022-0.03,0.044C153.76,155.699,153.77,155.686,153.776,155.678z
							"/>
						<path fill="#2B4C21" d="M153.056,155.777L153.056,155.777C153.059,155.798,153.058,155.794,153.056,155.777z"/>
						<path fill="#2B4C21" d="M153.898,155.313c-0.001-0.016-0.003-0.029-0.008-0.04
							C153.891,155.283,153.893,155.296,153.898,155.313z"/>
						<path fill="#2B4C21" d="M153.917,155.266c0.005,0.008,0.008,0.013,0.011,0.017
							C153.938,155.268,153.94,155.257,153.917,155.266z"/>
						<path fill="#2B4C21" d="M153.868,155.249c0.01,0.004,0.018,0.013,0.022,0.024c0-0.009,0.001-0.015,0.004-0.018
							L153.868,155.249z"/>
						<path fill="#2B4C21" d="M153.21,157.771l0.003,0.01C153.216,157.735,153.213,157.743,153.21,157.771z"/>
						<polygon fill="#2B4C21" points="152.59,156.481 152.587,156.477 152.583,156.476 						"/>
						<path fill="#2B4C21" d="M152.635,156.555c-0.095-0.098-0.077-0.093-0.052-0.079l-0.234-0.206L152.635,156.555z"/>
						<path fill="#2B4C21" d="M152.671,157.294l0.064-0.075c0.13-0.095,0.089-0.055,0.188-0.152
							c-0.253,0.225-0.045,0.001-0.316,0.205l0.051-0.049c-0.001,0.004,0.016-0.008,0.015-0.004c0.12-0.105-0.211,0.133-0.186,0.076
							c0.018-0.023,0.057-0.054,0.094-0.069l-0.082,0.023c0.003-0.009,0.056-0.035,0.053-0.027l-0.04-0.015l0.009-0.005
							c-0.05,0.021-0.13,0.047-0.165,0.056c0.039-0.029,0.035-0.011,0.072-0.031l-0.086,0.016c0.077-0.043,0.162-0.062,0.158-0.047
							c0.3-0.152-0.089,0.021,0.087-0.087l0.043-0.003c0.178-0.079,0.111-0.061,0.224-0.106c-0.062,0.016-0.28,0.123-0.363,0.138
							c0.022-0.014,0.032-0.023-0.035-0.012c0.114-0.037,0.084-0.036,0.073-0.046l0.154-0.042c-0.047,0.009-0.127,0.022-0.199,0.035
							c0.01-0.018,0.129-0.046,0.232-0.069c0.025-0.021-0.195,0.054-0.225,0.035c0.06-0.03-0.005-0.028-0.104-0.047
							c0.053-0.02,0.098-0.006,0.143-0.015l-0.129-0.003c0.003-0.004,0.042-0.005,0.062-0.005c-0.051-0.009-0.159,0.008-0.206-0.012
							c-0.18-0.007,0.256-0.041,0.061-0.067c0.047-0.003,0.098,0.009,0.16,0.01c-0.128-0.039-0.094-0.028-0.265-0.082l0.105-0.01
							c-0.12,0-0.259-0.046-0.369-0.101c-0.059-0.001-0.109-0.001-0.134-0.001c0,0-0.076-0.071-0.073-0.072
							c0.027-0.001,0.079,0.018,0.142,0.04l-0.034-0.018c0.063-0.004,0.149,0.027,0.233,0.058l-0.102-0.006
							c0.094,0.032,0.199,0.061,0.291,0.076c-0.018-0.006-0.033-0.014-0.041-0.021c0.025,0.007,0.048,0.013,0.064,0.017
							c0.017,0.002-0.02-0.009-0.057-0.022l0.177,0.031l-0.068-0.017l0.12-0.008c-0.164-0.07-0.406-0.192-0.447-0.291
							c0.111,0.068,0.193,0.089,0.335,0.153c-0.157-0.052,0.054,0.063,0.016,0.071c0.021-0.006,0.089,0.021,0.112,0.033
							l-0.128-0.093c0.115,0.05,0.089,0.028,0.143,0.042c-0.232-0.096-0.134-0.098-0.192-0.151c0.074,0.039,0.148,0.084,0.12,0.092
							c0.177,0.07-0.243-0.166-0.09-0.113c-0.001,0.006-0.014,0.003,0.022,0.026c-0.059-0.05,0.009-0.051,0.066-0.003l-0.001,0.005
							c0.035-0.019,0.066-0.078-0.092-0.228c0.021,0.019,0.191,0.171,0.224,0.199c-0.011,0.013-0.484-0.535-0.473-0.547
							c0.126,0.132,0.448,0.422,0.505,0.516c0.024,0.013,0.047,0.025,0.016-0.029c-0.021-0.017-0.196-0.181-0.2-0.198
							c0.164,0.129,0.088,0.069,0.228,0.18c-0.033-0.024-0.215-0.245-0.193-0.25c0.027,0.033,0.18,0.218,0.198,0.241l-0.148-0.241
							c0.023,0.046,0.146,0.188,0.199,0.247c-0.035-0.042,0.022-0.013,0.012-0.041l-0.047-0.044
							c0.049,0.011-0.188-0.352-0.129-0.368c0.022,0.054,0.17,0.313,0.204,0.336c-0.068-0.126-0.29-0.631-0.269-0.766l0.045,0.069
							l0.009-0.106c0.043,0.214,0.177,0.663,0.248,0.825c0.042,0.052,0.048,0.084,0.06,0.069c0.039,0.066,0.045,0.109,0.044,0.115
							l0.049,0.028c-0.072-0.154-0.043-0.168-0.094-0.296c-0.004-0.003,0.027,0.18,0.027,0.18c-0.077-0.146-0.174-0.455-0.11-0.438
							c0.033,0.06,0.097,0.282,0.119,0.334c-0.018-0.055-0.007-0.112,0.009-0.074l0.016,0.089c0.034,0.056-0.038-0.221,0.029-0.074
							c0.012,0.008,0.072,0.203,0.05,0.106c-0.053-0.184-0.21-0.756-0.228-0.9c0.011,0.01,0.119,0.155,0.148,0.251
							c0.043,0.146,0.036,0.355,0.076,0.48c-0.009-0.045-0.011-0.102-0.01-0.119c0.016,0.038,0.021,0.141,0.035,0.118
							c-0.022-0.168,0.043,0.012-0.012-0.143c0.016-0.051,0.027,0.032,0.051,0.022c-0.021-0.108-0.008-0.376,0.024-0.428
							c0,0.044,0.009,0.1,0.013,0.125c0.058,0.006,0.084,0.096,0.131,0.1c0.002,0.041,0.019,0.093,0.002,0.165
							c0.009-0.029,0.021-0.086,0.035-0.089c0.007,0.148-0.031,0.02-0.032,0.197c0.012-0.098,0.047-0.133,0.078-0.191
							c0.019-0.151-0.046-0.034-0.069,0.025c0.02-0.21,0.085-0.426,0.176-0.513c0.065-0.044-0.004,0.138,0.012,0.109
							c0.08,0.063,0.179-0.332,0.227-0.157c-0.01,0.138-0.086,0.253-0.109,0.348c-0.051,0.037-0.03-0.099-0.06-0.102l0.015,0.07
							c-0.024,0.039-0.056,0.065-0.06,0.023c-0.011,0.125,0.134,0.06,0.146,0.19c0.027-0.037,0.064-0.069,0.079-0.123l-0.026,0.008
							c0.025-0.109,0.1-0.117,0.095-0.177c0.06-0.055,0.152-0.142,0.168-0.063l-0.068,0.138c0.022-0.039,0.018-0.095-0.016-0.06
							c0.053-0.049-0.043,0.213,0.078,0.05l0.024-0.106c0.067-0.049,0.204-0.167,0.215-0.093c0.067-0.139-0.017,0.007,0.051-0.161
							c-0.093,0.2-0.112-0.074-0.188,0.149c0.072-0.195-0.01-0.105,0.027-0.284c-0.021,0.046-0.028,0.094-0.057,0.051
							c-0.01,0.013-0.021,0.027-0.028,0.036l-0.001-0.005l-0.001,0.007c-0.005,0.006-0.006,0.007,0,0.002
							c0,0.024-0.005,0.052-0.015,0.079c-0.07,0.094-0.123,0.063-0.165,0.108c-0.011-0.032,0.031-0.049,0.041-0.104l-0.063,0.071
							c0.041-0.104,0.006-0.194,0.087-0.236l-0.051-0.021c-0.01-0.07-0.049-0.108-0.09-0.071c-0.02-0.031-0.097,0.101-0.052,0.022
							l-0.1,0.044l0.005-0.028c-0.085-0.035-0.19,0.16-0.266-0.052c-0.03,0.025-0.06,0.058-0.105,0.022l-0.009-0.098
							c-0.035,0.031-0.117-0.091-0.129,0.011c-0.061-0.258-0.198-0.038-0.27-0.074l0.021,0.125c-0.045,0.002-0.08,0.051-0.118,0.114
							l0.032,0.107c-0.015,0.101-0.13-0.044-0.197-0.009c-0.012-0.042,0.011-0.037,0.031-0.018c-0.185-0.21-0.088,0.243-0.234,0.109
							c0.003,0.045-0.016,0.039-0.042,0.021l0.001-0.008l-0.007,0.003c-0.019-0.013-0.039-0.026-0.056-0.038
							c0.021,0.02,0.04,0.035,0.052,0.04c-0.012,0.01-0.025,0.033-0.029,0.067l-0.073-0.097l-0.003,0.005
							c-0.044-0.025,0.017,0.057,0.075,0.127c0.002,0.021,0.008,0.048,0.019,0.076c-0.125-0.149-0.005,0.086-0.146-0.066
							c0.049,0.09-0.04,0.129,0.092,0.296c-0.019-0.021-0.031-0.026-0.024-0.034c-0.032-0.006-0.066-0.009-0.04,0.048l-0.112-0.105
							l0.109,0.181c-0.084-0.046-0.134-0.071-0.197-0.178c0.082,0.182,0.009,0.095,0.105,0.257l-0.073-0.065
							c-0.012,0.02,0.071,0.127-0.001,0.086c-0.191-0.079-0.147,0.177-0.365,0.215c0.276,0.094-0.146,0.006,0.063,0.1
							c-0.066-0.019-0.109-0.014-0.157-0.058c0.041,0.09-0.14,0.071,0.028,0.175c-0.069-0.012-0.093-0.044-0.134-0.048
							c0.012,0.01,0.051,0.039,0.009,0.035s-0.053-0.026-0.078-0.047c-0.013,0.082,0.192,0.138,0.385,0.188
							c-0.102,0.008-0.093,0.03,0.035,0.076c-0.065-0.002-0.136,0.007-0.153-0.038c-0.013,0.019-0.112,0.131,0.047,0.148
							c-0.041,0.003-0.015,0.03,0.003,0.037c-0.014,0.049-0.028,0.054-0.018,0.103l0.027-0.013c0.189,0.02,0.043,0.037,0.069,0.075
							h-0.02c-0.131,0.097,0.069,0.029-0.079,0.133l0.118-0.02c0.257-0.028-0.144,0.095-0.038,0.132l0.064-0.031
							c0.089,0.004-0.321,0.151-0.342,0.198c-0.02,0.013-0.038-0.002-0.058-0.008c-0.12,0.128,0.155-0.03,0.208,0.019
							c-0.077,0.036-0.21,0.048-0.211,0.097c-0.055,0.051,0.294,0.027,0.17,0.139c0.054-0.038,0.108-0.074,0.165-0.07
							c0.038,0.021-0.164,0.215,0.035,0.15c-0.013,0.014-0.026,0.023-0.04,0.032c0.063,0.002,0.128,0.046,0.229-0.003
							c-0.315,0.27,0.274,0.017-0.021,0.259l0.081,0.061l-0.029,0.025c0.027,0.065,0.111,0.01,0.187-0.045
							c-0.007,0.028-0.038,0.049-0.052,0.063c0.019,0.114,0.045,0.114,0.21,0.003l-0.064,0.106c0.048-0.046,0.012,0.234,0.165,0.153
							c-0.007,0.013-0.02,0.033-0.034,0.045c0.139-0.081,0.116,0.427,0.302,0.01l0.092-0.089c-0.063-0.056,0.064-0.185,0.056-0.266
							c0.029-0.019,0.031,0.151-0.007,0.164v-0.023c-0.072,0.224,0.07,0.109,0.037,0.263c0.162,0.008,0.321,0.161,0.496,0.144
							l-0.037-0.18l0.054,0.005c0.02,0.041,0.039,0.14-0.003,0.137c0.036,0.101,0.057-0.094,0.05-0.133
							c0.089,0.063,0.004,0.214,0.027,0.216l0.032-0.019l-0.011-0.02c0.015-0.079,0.002-0.151,0.049-0.156
							c0.036,0.028,0.04,0.106,0.053,0.109c0.003,0.013,0.009,0.018,0.021,0l0.075-0.006l-0.067-0.131
							c0.01-0.077,0.063-0.011-0.013-0.159c0.119,0.234,0.264,0.006,0.314,0.057c-0.011-0.114,0.022-0.13,0.073-0.144
							c-0.027-0.02-0.116-0.155-0.073-0.156c0.17,0.292,0.141,0.082,0.313,0.25c-0.122-0.106,0.079-0.115-0.105-0.257
							c0.045-0.002,0.082,0.095,0.155,0.136c-0.015-0.147,0.207-0.08,0.253-0.206c-0.033-0.028-0.098-0.056-0.134-0.114l0.213,0.085
							c-0.003-0.032-0.192-0.16-0.045-0.109c-0.034-0.015-0.084-0.039-0.089-0.06c0.308-0.098,0.031-0.422,0.456-0.559
							c-0.088,0.019-0.094-0.005-0.094-0.028c-0.022,0.012-0.107-0.018-0.167-0.024l0.175-0.07
							c-0.163-0.031-0.002-0.103-0.159-0.118l0.025,0.028c-0.183-0.039-0.418,0.025-0.656-0.004c0.207,0.053-0.317,0.016-0.02,0.099
							c-0.048-0.002-0.075-0.021-0.13-0.028c0.102,0.028,0.116,0.045,0.065,0.054l-0.023-0.009c0.004,0.06-0.095,0.057-0.176,0.073
							l0.109,0.046c-0.021,0.005-0.056-0.009-0.085-0.018c0.153,0.091,0.027-0.025,0.2,0.067c-0.228-0.087-0.055,0.09-0.293-0.042
							c-0.009,0.015,0.118,0.068,0.108,0.084l-0.064-0.036l0.078,0.058c-0.021,0.003-0.102-0.048-0.152-0.083
							c0.008,0.002-0.01-0.016-0.012-0.021c-0.08-0.042-0.001,0.043-0.027,0.03l0.046,0.018c0.021,0.079-0.075,0.056-0.02,0.195
							l0.039,0.04c0.03,0.108-0.064-0.026-0.07,0.041l-0.006-0.012c0.025,0.053,0.027,0.08,0.012,0.082
							c-0.024-0.061-0.085-0.1-0.11-0.167c0.021,0.113,0.029,0.082,0.099,0.28l-0.05-0.078c0.028,0.08,0.047,0.12,0.031,0.156
							c-0.015-0.083-0.072-0.12-0.098-0.228c-0.111-0.161,0.006,0.214-0.112-0.056c0.059,0.25,0.087,0.123,0.093,0.179
							c0.042,0.075,0.045,0.187,0.017,0.168c-0.023,0.001-0.127-0.305-0.155-0.289c0.004,0-0.001-0.02,0.003-0.02
							c-0.026-0.061-0.005,0.099-0.042-0.007c0.018,0.153-0.021-0.008,0.006,0.188l0.03-0.048c-0.008,0.052,0,0.283-0.058,0.177
							c-0.001-0.04,0.005-0.094,0.009-0.123c-0.018-0.058-0.017,0.04-0.033-0.019c-0.018-0.197,0.04-0.048,0.035-0.197
							c-0.021-0.082-0.014,0.145-0.034-0.069c0.02,0.271-0.031-0.031-0.038,0.179l-0.005-0.118
							c-0.002,0.019-0.007,0.076-0.014,0.074l0.005-0.156c-0.013,0.134-0.03-0.107-0.042-0.041c0.028,0.002,0.005,0.146,0.02,0.232
							c-0.055,0.154-0.021-0.314-0.057-0.262c0.006-0.017,0.014,0.073,0,0.127c-0.007-0.025-0.013-0.072-0.009-0.134
							c-0.029,0.023-0.012,0.121-0.033,0.192c0.01-0.144-0.024,0.058-0.051,0.102l0.021-0.118c-0.02-0.082-0.062,0.244-0.08,0.142
							l0.055-0.157l-0.027,0.035l0.037-0.132c-0.041,0.094-0.043,0.065-0.046,0.024c-0.022,0.082-0.069,0.207-0.092,0.205
							c0.012-0.071,0.046-0.106,0.015-0.097c0.033-0.068,0.069-0.157,0.042-0.05l0.043-0.106c0.018-0.08-0.017-0.023-0.025-0.023
							c0.001,0.004,0.002,0.011-0.003,0.027c0.002,0.004-0.093,0.145-0.094,0.142c0.013-0.045,0.032-0.075,0.05-0.105
							c-0.011,0.008-0.037,0.056-0.051,0.06c0.044-0.087,0.088-0.178,0.115-0.214l-0.068,0.085c0.018-0.039,0.044-0.109,0.063-0.141
							c0.022-0.054-0.123,0.153-0.102,0.078c-0.011,0.015-0.022,0.028-0.033,0.037c-0.004-0.033,0.063-0.135-0.04-0.044l0.107-0.139
							c-0.04,0.021-0.133,0.176-0.204,0.206c-0.059,0.025,0.097-0.113,0.126-0.153c-0.064,0.059-0.212,0.161-0.118,0.051
							C152.674,157.277,152.658,157.298,152.671,157.294z M152.487,157.138c0.025-0.003,0.1-0.023,0.034,0.005
							C152.392,157.188,152.452,157.159,152.487,157.138z M152.19,156.703c0.037,0.016,0.016,0.017-0.031,0.015
							C152.151,156.709,152.158,156.703,152.19,156.703z M153.668,155.272l-0.004,0.005
							C153.65,155.224,153.655,155.244,153.668,155.272z M153.708,155.34c0.012-0.014,0.017-0.029,0.021-0.046
							c-0.015,0.027-0.028,0.025-0.04,0.012C153.682,155.337,153.682,155.359,153.708,155.34z M153.493,158.545l-0.018-0.027
							C153.491,158.477,153.492,158.509,153.493,158.545z"/>
						<path fill="#2B4C21" d="M152.336,156.794l-0.064-0.01C152.291,156.79,152.314,156.795,152.336,156.794z"/>
						<polygon fill="#2B4C21" points="152.809,157.334 152.808,157.336 152.82,157.318 						"/>
						<path fill="#2B4C21" d="M152.976,156.262c-0.009-0.017-0.016-0.038-0.021-0.061
							C152.959,156.23,152.966,156.255,152.976,156.262z"/>
						<path fill="#2B4C21" d="M154.098,155.303l-0.053,0.007c0.021,0.005,0.014,0.031,0.013,0.052
							C154.071,155.337,154.085,155.298,154.098,155.303z"/>
						<path fill="#2B4C21" d="M153.894,156.077c0.014-0.009,0.008,0.004,0.021-0.005l0.037-0.041
							C153.936,156.022,153.896,156.049,153.894,156.077z"/>
						<path fill="#2B4C21" d="M153.918,155.661c-0.053,0.088-0.016,0.066,0.014,0.064l-0.003-0.002
							C154.014,155.609,153.966,155.633,153.918,155.661z"/>
						<path fill="#2B4C21" d="M153.938,155.727c0.008,0,0.016,0.003,0.019,0.011C153.991,155.692,153.955,155.723,153.938,155.727z"
							/>
						<path fill="#2B4C21" d="M153.805,155.304c0.002,0.03,0.06-0.115,0.05-0.073C153.919,155.116,153.712,155.337,153.805,155.304z
							"/>
						<polygon fill="#2B4C21" points="153.752,155.951 153.814,155.842 153.75,155.922 						"/>
						<path fill="#2B4C21" d="M153.663,155.799l0.013,0.046c0.009-0.019,0.019-0.028,0.027-0.034
							C153.688,155.798,153.679,155.766,153.663,155.799z"/>
						<path fill="#2B4C21" d="M153.703,155.811c0.008,0.008,0.018,0.01,0.032-0.006C153.73,155.804,153.718,155.802,153.703,155.811
							z"/>
						<polygon fill="#2B4C21" points="153.697,155.964 153.703,155.938 153.689,155.92 						"/>
						<path fill="#2B4C21" d="M153.345,155.664l-0.041,0.032c-0.011,0.042-0.006,0.068,0.009,0.053
							C153.326,155.721,153.342,155.706,153.345,155.664z"/>
						<path fill="#2B4C21" d="M153.356,156.023c0-0.027,0.007-0.055,0.014-0.096l-0.04,0.149L153.356,156.023z"/>
						<path fill="#2B4C21" d="M153.276,156.037c-0.012,0.042-0.056,0.119-0.025,0.112
							C153.261,156.107,153.293,156.074,153.276,156.037z"/>
						<polygon fill="#2B4C21" points="152.855,155.851 152.862,155.847 152.809,155.598 						"/>
						<path fill="#2B4C21" d="M152.811,156.518c0.048,0.046-0.079-0.135-0.023-0.077c-0.025-0.054-0.046-0.047-0.068-0.093
							C152.74,156.407,152.716,156.379,152.811,156.518z"/>
						<path fill="#2B4C21" d="M152.719,156.348c-0.003-0.01-0.008-0.021-0.014-0.037
							C152.711,156.326,152.715,156.337,152.719,156.348z"/>
						<polygon fill="#2B4C21" points="154.895,157.037 154.95,157.001 154.863,157.021 						"/>
						<path fill="#2B4C21" d="M154.711,156.962l0.163-0.006l-0.146-0.022C154.735,156.941,154.748,156.956,154.711,156.962z"/>
						<path fill="#2B4C21" d="M152.79,157.011l-0.037,0.011c-0.04,0.013-0.043,0.016-0.048,0.021L152.79,157.011z"/>
						<polygon fill="#2B4C21" points="152.721,157.152 152.723,157.148 152.602,157.232 						"/>
						<path fill="#2B4C21" d="M152.914,157.098c0.002-0.005-0.023,0.016-0.02,0.009C152.914,157.093,152.79,157.229,152.914,157.098
							z"/>
					</g>
				</g>
			</g>
		</g>
	</g>
</g>
</svg>
