<?xml version="1.0" encoding="utf-8"?>
<!-- Generator: Adobe Illustrator 16.0.0, SVG Export Plug-In . SVG Version: 6.00 Build 0)  -->
<!DOCTYPE svg PUBLIC "-//W3C//DTD SVG 1.1//EN" "http://www.w3.org/Graphics/SVG/1.1/DTD/svg11.dtd">
<svg version="1.1" id="Capa_1" xmlns="http://www.w3.org/2000/svg" xmlns:xlink="http://www.w3.org/1999/xlink" x="0px" y="0px"
	 width="1600px" height="1600px" viewBox="0 0 1600 1600" enable-background="new 0 0 1600 1600" xml:space="preserve">
<g>
	<path fill="#ED3801" d="M208.3,900H6.2H0v500l148.1-136.1C293.2,1467.3,531.1,1600,800,1600c408,0,744.6-305.4,793.8-700h-202.1
		c-47.601,283.8-294.4,500-591.7,500c-210.6,0-396-108.6-503-272.9L544.1,900H208.3z"/>
	<path fill="#ED3801" d="M800,0C392,0,55.4,305.4,6.2,700h202.1C255.9,416.2,502.7,200,800,200c216.9,0,407,115.1,512.4,287.6
		L1100,700h200h91.7h202.1h6.2V200l-143.2,143.2C1312.3,135.7,1072,0,800,0z"/>
</g>
</svg>
