<?xml version="1.0" encoding="utf-8"?>
<!-- Generator: Adobe Illustrator 17.0.1, SVG Export Plug-In . SVG Version: 6.00 Build 0)  -->
<!DOCTYPE svg PUBLIC "-//W3C//DTD SVG 1.1//EN" "http://www.w3.org/Graphics/SVG/1.1/DTD/svg11.dtd">
<svg version="1.1" id="Calque_1" xmlns="http://www.w3.org/2000/svg" xmlns:xlink="http://www.w3.org/1999/xlink" x="0px" y="0px"
	 width="296.985px" height="157.492px" viewBox="0 0 296.985 157.492" enable-background="new 0 0 296.985 157.492"
	 xml:space="preserve">
<g>
	<path fill="#FFFFFF" d="M235.047,133.234l-1.285,2.73c8.316,30.868,46.864,6.697,46.864,6.697
		C253.842,110.14,235.047,133.234,235.047,133.234z M260.039,138.114c-0.591-0.223-1.419-0.591-2.451-0.907
		c-0.513-0.16-1.053-0.375-1.644-0.547c-0.591-0.164-1.21-0.341-1.857-0.521c-0.647-0.14-1.32-0.285-2.004-0.433
		c-0.684-0.122-1.387-0.219-2.087-0.321c-0.706-0.055-1.408-0.157-2.103-0.169c-0.698-0.012-1.382-0.067-2.047-0.024
		c-1.328,0.012-2.563,0.164-3.619,0.317c-2.124,0.325-3.501,0.83-3.501,0.83s0.299-0.211,0.868-0.505
		c0.58-0.27,1.411-0.676,2.475-0.981c1.064-0.309,2.336-0.595,3.72-0.696c0.69-0.075,1.406-0.087,2.138-0.083
		c0.73,0,1.464,0.095,2.205,0.138c0.735,0.122,1.467,0.234,2.178,0.375c0.708,0.172,1.4,0.363,2.063,0.55
		c0.649,0.243,1.275,0.473,1.866,0.692c0.593,0.227,1.12,0.516,1.614,0.751c1.002,0.453,1.745,1.013,2.293,1.334
		c0.537,0.339,0.837,0.551,0.837,0.551S260.641,138.338,260.039,138.114z"/>
	<path fill="#FFFFFF" d="M223.084,133.372c0.25,0.355,1.224,2.221,1.224,2.221c15.656,7.651,20.768-17.618,20.768-17.618
		C220.78,117.06,221.582,131.265,223.084,133.372z M238.681,122.952c-0.438,0.227-1.072,0.52-1.784,0.954
		c-0.36,0.215-0.758,0.422-1.161,0.676c-0.398,0.258-0.817,0.532-1.251,0.81c-0.414,0.309-0.844,0.621-1.279,0.942
		c-0.422,0.337-0.841,0.7-1.255,1.048c-0.396,0.383-0.818,0.739-1.177,1.138c-0.363,0.394-0.747,0.766-1.06,1.172
		c-0.676,0.779-1.22,1.577-1.673,2.268c-0.9,1.397-1.31,2.456-1.31,2.456s0.027-0.282,0.152-0.763
		c0.136-0.477,0.333-1.168,0.7-1.939c0.363-0.778,0.845-1.661,1.496-2.518c0.31-0.438,0.67-0.865,1.048-1.283
		c0.375-0.422,0.806-0.806,1.213-1.212c0.441-0.363,0.883-0.727,1.332-1.072c0.462-0.321,0.923-0.625,1.372-0.91
		c0.473-0.259,0.927-0.501,1.361-0.735c0.433-0.227,0.871-0.379,1.259-0.552c0.778-0.348,1.482-0.493,1.947-0.646
		c0.476-0.14,0.751-0.203,0.751-0.203S239.114,122.718,238.681,122.952z"/>
	<g>
		<path fill="#FFFFFF" d="M48.761,70.377c-0.051,0.676-0.074,1.208-0.074,1.594c-0.536,5.416-3.022,9.838-7.472,13.27
			c-4.011,3.045-8.582,4.57-13.707,4.57c-2.416,0-5.944-0.191-10.589-0.581v20.746h-3.624V51.737
			c7.785-0.629,12.524-0.946,14.213-0.946c5.802-0.433,10.615,0.923,14.436,4.062c2.126,1.74,3.651,3.386,4.566,4.931
			c1.306,2.131,2.034,4.766,2.178,7.905c0,0.583,0.023,0.97,0.074,1.161C48.761,69.238,48.761,69.746,48.761,70.377z M44.989,68.198
			c-0.29-4.352-1.959-7.785-5.004-10.299c-3.335-2.706-7.231-3.914-11.679-3.625c-3.043,0-6.843,0.243-11.386,0.724v16.101
			c0,0.289,0,0.461,0,0.508c-0.047,0.676-0.047,1.354,0,2.03c0,0.246,0,0.438,0,0.583v11.385c6.24,0.485,10.033,0.724,11.386,0.724
			c3.675,0.246,7.303-1.112,10.881-4.06c3.092-2.467,4.953-5.727,5.587-9.79c0.093-0.728,0.164-1.358,0.215-1.889
			C45.036,69.433,45.036,68.631,44.989,68.198z"/>
		<path fill="#FFFFFF" d="M18.425,111.476h-6.636v-61.13l1.384-0.109c7.913-0.637,12.606-0.95,14.334-0.95
			c0.633-0.051,1.36-0.079,2.072-0.079c5.219,0,9.7,1.51,13.316,4.485c2.284,1.865,3.887,3.609,4.908,5.326
			c1.423,2.319,2.231,5.219,2.388,8.605c0,0.453,0.004,0.727,0.032,0.887l0.039,0.34v1.526c-0.047,0.738-0.071,1.231-0.071,1.594
			c-0.579,5.966-3.287,10.784-8.054,14.462c-4.273,3.242-9.192,4.884-14.631,4.884c-2.162,0-5.211-0.152-9.083-0.453v20.612H18.425z
			 M14.8,108.469h0.619V87.596l1.626,0.136c4.568,0.379,8.09,0.574,10.463,0.574c4.771,0,9.07-1.435,12.801-4.261
			c4.132-3.191,6.387-7.19,6.881-12.223c-0.008-0.266,0.016-0.832,0.071-1.556L47.253,69c-0.047-0.31-0.071-0.72-0.071-1.311
			c-0.132-2.799-0.79-5.219-1.955-7.116c-0.837-1.407-2.26-2.932-4.237-4.555c-3.504-2.881-8-4.132-13.364-3.725
			c-1.634,0.004-5.912,0.282-12.826,0.832C14.8,53.125,14.8,108.469,14.8,108.469z M29.142,87.864L29.142,87.864
			c-0.309,0-0.621-0.011-0.932-0.031c-1.324,0-5.074-0.238-11.408-0.727l-1.384-0.11v-13.36c-0.051-0.637-0.051-1.392,0-2.135
			v-0.402V53.645l1.344-0.14c4.58-0.489,8.461-0.735,11.543-0.735c0.368-0.028,0.825-0.043,1.275-0.043
			c4.257,0,8.078,1.348,11.354,4.003c3.37,2.787,5.238,6.608,5.555,11.37c0.052,0.457,0.052,1.29,0.004,2.552
			c-0.059,0.625-0.132,1.275-0.23,2.022c-0.692,4.46-2.757,8.074-6.143,10.772C36.578,86.372,32.876,87.864,29.142,87.864z
			 M18.425,84.212c5.349,0.408,8.668,0.615,9.88,0.615c0.347,0.02,0.595,0.027,0.837,0.027c3.019,0,6.072-1.263,9.087-3.745
			c2.834-2.26,4.48-5.153,5.055-8.859c0.09-0.672,0.16-1.279,0.207-1.795c0.055-1.342,0.024-1.888,0-2.091
			c-0.266-4.019-1.728-7.042-4.464-9.302c-3.049-2.475-6.537-3.562-10.619-3.285c-2.761,0-6.092,0.195-9.982,0.583v15.248
			c-0.047,0.712-0.047,1.322-0.004,1.924L18.425,84.212z"/>
	</g>
	<g>
		<path fill="#FFFFFF" d="M89.448,73.422c3.863,4.3,5.798,9.45,5.798,15.447c0,6.866-1.704,12.235-5.11,16.101
			c-3.409,3.867-8.137,5.803-14.181,5.803c-5.803,0-10.467-1.959-13.993-5.877c-3.536-3.918-5.298-9.259-5.298-16.027
			c0-5.997,1.947-11.147,5.837-15.447c3.895-4.306,8.38-6.456,13.455-6.456C81.082,66.966,85.577,69.116,89.448,73.422z
			 M87.27,102.178c2.901-3.311,4.352-7.749,4.352-13.309c0-4.98-1.571-9.27-4.716-12.875c-3.143-3.601-6.772-5.404-10.877-5.404
			c-4.113,0-7.737,1.803-10.877,5.404c-3.143,3.605-4.716,7.895-4.716,12.875c0,5.658,1.423,10.116,4.277,13.38
			s6.624,4.895,11.316,4.895C80.619,107.144,84.369,105.491,87.27,102.178z"/>
		<path fill="#FFFFFF" d="M75.956,112.278c-6.222,0-11.304-2.146-15.112-6.377c-3.774-4.18-5.686-9.911-5.686-17.032
			c0-6.353,2.097-11.889,6.228-16.46c4.172-4.61,9.076-6.947,14.569-6.947c5.548,0,10.459,2.337,14.611,6.951
			c4.105,4.57,6.185,10.108,6.185,16.456c0,7.211-1.845,12.962-5.489,17.095C87.572,110.15,82.422,112.278,75.956,112.278z
			 M75.956,68.472c-4.673,0-8.708,1.947-12.336,5.958c-3.667,4.054-5.451,8.778-5.451,14.438c0,6.354,1.65,11.405,4.907,15.018
			c3.262,3.621,7.472,5.38,12.88,5.38c5.642,0,9.911-1.732,13.05-5.294c3.144-3.565,4.736-8.648,4.736-15.104
			c0-5.664-1.772-10.388-5.416-14.442C84.725,70.419,80.674,68.472,75.956,68.472z M76.029,108.65
			c-5.122,0-9.313-1.823-12.449-5.412c-3.085-3.53-4.653-8.362-4.653-14.369c0-5.333,1.713-9.997,5.091-13.864
			c3.425-3.926,7.467-5.916,12.01-5.916s8.587,1.99,12.012,5.916c3.378,3.871,5.086,8.535,5.086,13.864
			c0,5.908-1.59,10.721-4.726,14.299C85.217,106.804,81.053,108.65,76.029,108.65z M76.029,72.096c-3.687,0-6.874,1.6-9.747,4.887
			c-2.921,3.352-4.344,7.237-4.344,11.886c0,5.256,1.318,9.423,3.91,12.391c2.572,2.948,5.904,4.379,10.181,4.379
			c4.176,0,7.484-1.455,10.107-4.454c2.639-3.015,3.979-7.158,3.979-12.316c0-4.649-1.419-8.535-4.343-11.886
			C82.903,73.696,79.716,72.096,76.029,72.096z"/>
	</g>
	<g>
		<path fill="#FFFFFF" d="M121.72,107.144v3.12c-2.854,0-4.692-0.051-5.514-0.145c-2.272-0.242-3.941-0.82-5.004-1.744
			c-1.74-1.498-2.826-3.936-3.26-7.323c-0.148-1.354-0.27-5.126-0.363-11.316c-0.098-6.092-0.098-12.183,0-18.275h-6.096v-3.628
			h6.096v-7.034h3.624v7.034h9.357v3.628h-9.357c-0.097,5.993-0.097,12.014,0,18.06c0.047,5.607,0.122,8.871,0.219,9.791
			c0.337,3.19,1.185,5.392,2.537,6.6C115.069,106.831,117.658,107.241,121.72,107.144z"/>
		<path fill="#FFFFFF" d="M123.226,111.77h-1.506c-2.932,0-4.793-0.051-5.685-0.157c-2.596-0.278-4.505-0.966-5.818-2.1
			c-2.018-1.736-3.288-4.519-3.769-8.269c-0.156-1.447-0.277-5.193-0.375-11.484c-0.089-5.567-0.097-11.209-0.023-16.793h-6.068
			v-6.639h6.091v-7.034h6.636v7.034h9.356v6.639h-9.376c-0.074,5.474-0.071,11.027,0.02,16.528c0.059,6.905,0.148,9.062,0.207,9.657
			c0.293,2.757,1.001,4.704,2.045,5.638c0.29,0.235,1.498,0.865,5.627,0.865c0.351,0,0.719-0.004,1.098-0.016l1.541-0.036v6.167
			H123.226z M102.992,69.957h6.115l-0.028,1.529c-0.094,6.049-0.094,12.18,0,18.228c0.099,6.116,0.215,9.872,0.357,11.179
			c0.378,2.96,1.309,5.102,2.749,6.346c0.825,0.711,2.228,1.176,4.182,1.383c0.454,0.055,1.482,0.114,3.849,0.129v-0.089
			c-3.648-0.032-5.944-0.54-7.215-1.591c-1.701-1.518-2.694-3.993-3.077-7.601c-0.102-0.978-0.175-4.227-0.226-9.935
			c-0.097-6.021-0.097-12.113,0-18.096l0.027-1.482h9.33V69.34h-9.356v-7.034h-0.619v7.034h-6.087L102.992,69.957L102.992,69.957z"
			/>
	</g>
	<g>
		<path fill="#FFFFFF" d="M163.783,68.198v41.558h-3.625v-4.716v-2.538c-0.969,1.451-2.272,2.901-3.917,4.352
			c-3.386,2.948-7.231,4.422-11.531,4.422c-5.223,0-9.501-2.174-12.836-6.525c-3.049-4.011-4.571-8.727-4.571-14.143
			c0-1.403,0.122-2.83,0.361-4.28c0.969-5.994,3.553-10.83,7.761-14.502c3.916-3.484,8.632-5.028,14.146-4.645
			C153.387,67.232,158.125,67.573,163.783,68.198z M160.158,90.03V71.388c-6.236-0.481-10.037-0.723-11.389-0.723
			c-4.203-0.288-8,1.064-11.385,4.062c-1.983,1.74-3.551,4.18-4.712,7.323c-1.063,2.854-1.6,5.757-1.6,8.705
			c0,3.675,0.774,6.842,2.323,9.501c2.901,4.883,6.576,7.323,11.025,7.323c3.528,0,6.862-1.352,10.01-4.058
			C158.199,100.181,160.107,95.684,160.158,90.03z"/>
		<path fill="#FFFFFF" d="M144.71,112.783c-5.692,0-10.412-2.393-14.032-7.117c-3.238-4.265-4.88-9.333-4.88-15.057
			c0-1.482,0.128-3.007,0.383-4.527c1.016-6.314,3.796-11.494,8.253-15.39c4.2-3.733,9.322-5.427,15.237-5.008
			c3.758,0.044,8.59,0.388,14.279,1.021l1.336,0.148v44.408h-6.635v-4.609c-0.446,0.445-0.92,0.891-1.419,1.332
			C153.578,111.171,149.363,112.783,144.71,112.783z M147.94,68.631c-4.478,0-8.246,1.412-11.515,4.317
			c-3.926,3.429-6.37,8.007-7.273,13.622c-0.23,1.368-0.343,2.725-0.343,4.038c0,5.052,1.435,9.505,4.261,13.232
			c3.057,3.991,6.866,5.932,11.64,5.932c3.961,0,7.41-1.326,10.541-4.052c1.529-1.352,2.765-2.717,3.656-4.054l2.757-4.129v10.713
			h0.613v-38.7c-5.008-0.528-9.286-0.816-12.727-0.863C148.949,68.647,148.44,68.631,147.94,68.631z M144.42,109.084
			c-4.996,0-9.141-2.71-12.319-8.059c-1.682-2.889-2.531-6.342-2.531-10.27c0-3.116,0.568-6.222,1.689-9.232
			c1.244-3.362,2.968-6.028,5.13-7.928c3.676-3.25,7.871-4.751,12.485-4.431c1.239-0.023,5.059,0.235,11.401,0.728l1.389,0.106
			V90.03c-0.055,6.088-2.154,11.003-6.24,14.616C152.002,107.594,148.303,109.084,144.42,109.084z M147.67,72.131
			c-3.425,0-6.463,1.216-9.29,3.723c-1.784,1.568-3.23,3.823-4.298,6.717c-0.997,2.674-1.505,5.427-1.505,8.183
			c0,3.389,0.711,6.33,2.118,8.746c2.628,4.418,5.81,6.573,9.724,6.573c3.187,0,6.139-1.208,9.024-3.695
			c3.453-3.055,5.162-7.105,5.209-12.363v-17.23c-5.361-0.406-8.68-0.614-9.884-0.614C148.33,72.143,147.999,72.131,147.67,72.131z"
			/>
	</g>
	<g>
		<path fill="#FFFFFF" d="M222.164,88.795v0.364c0,0.579,0.075,1.232,0.219,1.959c0.915,5.705,2.757,9.767,5.509,12.183
			c3.096,2.71,6.721,4.062,10.881,4.062c2.948,0.146,5.607-0.097,7.975-0.727c0.874-0.191,2.878-0.723,6.021-1.595
			c0,1.064,0,1.959,0,2.686c0,0.724,0,1.013,0,0.869c-3.095,0.918-6.235,1.571-9.429,1.959c-1.307,0.145-2.563,0.242-3.771,0.289
			c-5.559,0.051-10.129-1.497-13.707-4.641c-4.109-3.628-6.576-8.847-7.398-15.662v-1.525c0-0.629,0-1.161,0-1.595
			c0-0.337,0.024-0.654,0.075-0.942c0.481-5.994,2.972-10.952,7.468-14.87c3.385-2.999,7.229-4.497,11.529-4.497
			c0.824,0,1.669,0.071,2.543,0.219c4.738,0.775,8.507,3.382,11.31,7.832c2.517,4.011,3.675,8.559,3.482,13.634h-32.707V88.795z
			 M222.31,85.241h28.72c-0.291-2.67-1.039-5.004-2.247-6.994c-2.854-4.959-6.529-7.438-11.026-7.438
			c-3.479,0-6.768,1.361-9.864,4.082C224.799,77.614,222.939,81.061,222.31,85.241z"/>
		<path fill="#FFFFFF" d="M239.317,112.349c-5.798,0-10.658-1.689-14.446-5.016c-4.379-3.863-7.034-9.454-7.897-16.614l-0.012-0.179
			v-3.12c0-0.426,0.035-0.826,0.094-1.193c0.497-6.243,3.183-11.584,7.964-15.752c3.644-3.226,7.86-4.868,12.519-4.868
			c0.907,0,1.845,0.082,2.789,0.238c5.153,0.841,9.309,3.707,12.339,8.516c2.667,4.257,3.913,9.13,3.71,14.494l-0.054,1.446h-32.558
			c0.028,0.168,0.059,0.345,0.093,0.52c0.869,5.381,2.554,9.182,5.028,11.351c2.834,2.479,6.068,3.687,9.888,3.687
			c0.602,0.027,1.123,0.039,1.633,0.039c2.162,0,4.169-0.238,5.96-0.716c0.885-0.195,2.828-0.711,6.003-1.59l1.908-0.528v6.655
			l-1.08,0.321c-3.148,0.934-6.406,1.61-9.674,2.008c-1.331,0.15-2.638,0.251-3.889,0.302L239.317,112.349L239.317,112.349z
			 M219.971,90.445c0.782,6.366,3.1,11.289,6.888,14.632c3.218,2.826,7.414,4.265,12.457,4.265l0.243-0.004
			c1.133-0.043,2.365-0.14,3.616-0.282c2.718-0.329,5.439-0.863,8.09-1.595v-0.445c-2.138,0.586-3.49,0.938-4.188,1.09
			c-2.435,0.649-5.278,0.911-8.378,0.759c-0.003,0-0.008,0-0.008,0c-4.442,0-8.429-1.49-11.787-4.43
			c-3.014-2.647-5.036-7.046-6.011-13.079c-0.152-0.77-0.234-1.525-0.234-2.197V87.29h32.725c-0.075-4.176-1.168-7.98-3.268-11.33
			c-2.585-4.098-5.947-6.439-10.284-7.144c-0.786-0.132-1.555-0.199-2.294-0.199c-3.957,0-7.402,1.348-10.533,4.117
			c-4.239,3.691-6.514,8.222-6.967,13.864c-0.051,0.341-0.067,0.572-0.067,0.822L219.971,90.445L219.971,90.445z M252.709,86.747
			h-32.147l0.262-1.729c0.676-4.519,2.721-8.305,6.076-11.257c3.362-2.956,7.014-4.456,10.857-4.456c5.052,0,9.2,2.757,12.327,8.187
			c1.304,2.146,2.127,4.708,2.44,7.589L252.709,86.747z M224.143,83.736h25.137c-0.355-1.76-0.954-3.339-1.783-4.712
			c-2.608-4.525-5.786-6.709-9.74-6.709c-3.132,0-6.033,1.212-8.871,3.707C226.482,78.14,224.917,80.678,224.143,83.736z"/>
	</g>
	<g>
		<path fill="#FFFFFF" d="M279.824,67.764v3.699c-1.935,0.676-3.699,1.693-5.294,3.045c-3.191,2.804-5.22,6.89-6.091,12.258
			c-0.291,1.74-0.436,2.828-0.436,3.265v19.726h-3.627V67.764h3.627v9.356c1.256-2.127,2.753-3.965,4.493-5.513
			C274.575,69.821,277.015,68.538,279.824,67.764z"/>
		<path fill="#FFFFFF" d="M269.508,111.261h-6.639V66.258h6.639v6.226c0.628-0.712,1.291-1.38,1.991-1.999
			c2.256-1.943,4.92-3.342,7.927-4.172l1.903-0.528v6.746l-1.007,0.351c-1.748,0.613-3.37,1.549-4.819,2.776
			c-2.889,2.537-4.773,6.362-5.578,11.348c-0.388,2.31-0.417,2.897-0.417,3.025L269.508,111.261L269.508,111.261z M265.882,108.25
			h0.617V90.03c0-0.368,0.051-1.094,0.454-3.514c0.922-5.684,3.138-10.111,6.58-13.137c1.47-1.244,3.068-2.229,4.786-2.949v-0.583
			c-1.804,0.712-3.424,1.683-4.843,2.903c-1.595,1.419-3.009,3.155-4.18,5.133l-2.798,4.744V69.269h-0.617L265.882,108.25
			L265.882,108.25z"/>
	</g>
	<path fill="#FFFFFF" d="M210.755,131.878l-0.089-18.951v-0.176h0.024c0.051-3.429,0.051-7.225,0-11.264V66.552l-1.354-0.14
		c-5.673-0.582-10.524-0.903-14.337-0.947c-5.901-0.418-11.053,1.271-15.3,5.006c-4.511,3.894-7.315,9.101-8.344,15.518
		c-0.199,1.508-0.301,3.014-0.301,4.476c0,5.775,1.638,10.863,4.88,15.128c3.62,4.722,8.366,7.12,14.103,7.12
		c4.66,0,8.871-1.614,12.526-4.801c0.524-0.465,1.021-0.931,1.49-1.4v5.991l-0.019,5.528c-4.07-3.339-9.2-4.773-13.149-4.773
		c-10.995,0-19.937,8.945-19.937,19.94s8.942,19.937,19.937,19.937c10.993,0,19.94-8.942,19.94-19.937
		C210.826,132.739,210.779,132.316,210.755,131.878z M204.054,89.87c-0.047,5.264-1.779,9.334-5.294,12.446
		c-2.881,2.53-5.829,3.757-9.012,3.757c-3.957,0-7.162-2.198-9.798-6.721c-1.404-2.408-2.115-5.353-2.115-8.743
		c0-2.759,0.504-5.536,1.501-8.244c1.068-2.848,2.537-5.111,4.368-6.722c2.861-2.495,5.954-3.719,9.493-3.719
		c0.297,0,0.597,0.012,0.903,0.028c1.216,0,4.574,0.187,9.997,0.554C204.143,75.103,204.129,80.921,204.054,89.87z M190.886,147.865
		c-8.09,0-14.671-6.58-14.671-14.669c0-8.09,6.581-14.673,14.671-14.673c4.081,0,14.673,2.639,14.673,14.673
		C205.56,141.285,198.975,147.865,190.886,147.865z"/>
	<g>
		<path fill="#FFFFFF" d="M29.739,149.735c-1.107,0.554-3.322,1.107-6.16,1.107c-6.575,0-11.524-4.152-11.524-11.801
			c0-7.302,4.949-12.251,12.182-12.251c2.907,0,4.741,0.623,5.537,1.038l-0.727,2.458c-1.142-0.555-2.769-0.97-4.707-0.97
			c-5.468,0-9.102,3.495-9.102,9.621c0,5.71,3.288,9.378,8.963,9.378c1.834,0,3.703-0.38,4.914-0.969L29.739,149.735z"/>
		<path fill="#FFFFFF" d="M48.256,141.983c0,6.195-4.291,8.895-8.34,8.895c-4.533,0-8.029-3.322-8.029-8.617
			c0-5.606,3.668-8.895,8.306-8.895C45.003,133.366,48.256,136.862,48.256,141.983z M34.966,142.157
			c0,3.668,2.111,6.437,5.087,6.437c2.907,0,5.087-2.734,5.087-6.506c0-2.838-1.419-6.438-5.018-6.438
			C36.524,135.65,34.966,138.972,34.966,142.157z"/>
		<path fill="#FFFFFF" d="M52.168,138.281c0-1.73-0.035-3.149-0.139-4.534h2.7l0.173,2.769h0.069
			c0.831-1.592,2.769-3.149,5.537-3.149c2.318,0,5.917,1.385,5.917,7.13v10.001H63.38v-9.655c0-2.699-1.003-4.949-3.876-4.949
			c-2.007,0-3.564,1.419-4.083,3.115c-0.138,0.381-0.208,0.899-0.208,1.419v10.07h-3.045
			C52.168,150.498,52.168,138.281,52.168,138.281z"/>
		<path fill="#FFFFFF" d="M71.446,138.281c0-1.73-0.035-3.149-0.139-4.534h2.7l0.173,2.769h0.069
			c0.831-1.592,2.769-3.149,5.537-3.149c2.318,0,5.917,1.385,5.917,7.13v10.001h-3.045v-9.655c0-2.699-1.003-4.949-3.876-4.949
			c-2.007,0-3.564,1.419-4.083,3.115c-0.138,0.381-0.208,0.899-0.208,1.419v10.07h-3.045V138.281z"/>
		<path fill="#FFFFFF" d="M92.42,142.676c0.069,4.118,2.699,5.814,5.745,5.814c2.18,0,3.495-0.381,4.637-0.865l0.519,2.18
			c-1.073,0.484-2.907,1.038-5.571,1.038c-5.157,0-8.237-3.392-8.237-8.443c0-5.053,2.976-9.033,7.856-9.033
			c5.468,0,6.921,4.811,6.921,7.891c0,0.623-0.069,1.107-0.104,1.419L92.42,142.676L92.42,142.676z M101.348,140.496
			c0.035-1.938-0.796-4.949-4.222-4.949c-3.08,0-4.43,2.838-4.672,4.949H101.348z"/>
		<path fill="#FFFFFF" d="M120.072,149.874c-0.796,0.415-2.561,0.969-4.811,0.969c-5.053,0-8.34-3.426-8.34-8.548
			c0-5.156,3.53-8.894,8.998-8.894c1.799,0,3.392,0.45,4.222,0.865l-0.692,2.354c-0.727-0.416-1.869-0.796-3.53-0.796
			c-3.841,0-5.918,2.837-5.918,6.333c0,3.876,2.492,6.264,5.814,6.264c1.73,0,2.873-0.45,3.738-0.831L120.072,149.874z"/>
		<path fill="#FFFFFF" d="M127.825,128.936v4.811h4.36v2.319h-4.36v9.032c0,2.076,0.588,3.253,2.284,3.253
			c0.796,0,1.384-0.104,1.765-0.208l0.139,2.284c-0.588,0.242-1.523,0.415-2.7,0.415c-1.419,0-2.561-0.449-3.288-1.28
			c-0.865-0.899-1.177-2.388-1.177-4.36v-9.136h-2.595v-2.319h2.595v-4.015L127.825,128.936z"/>
		<path fill="#FFFFFF" d="M137.17,142.676c0.069,4.118,2.699,5.814,5.744,5.814c2.181,0,3.495-0.381,4.638-0.865l0.519,2.18
			c-1.072,0.484-2.906,1.038-5.571,1.038c-5.156,0-8.236-3.392-8.236-8.443c0-5.053,2.977-9.033,7.855-9.033
			c5.468,0,6.922,4.811,6.922,7.891c0,0.623-0.069,1.107-0.104,1.419L137.17,142.676L137.17,142.676z M146.099,140.496
			c0.034-1.938-0.797-4.949-4.222-4.949c-3.08,0-4.43,2.838-4.672,4.949H146.099z M146.825,126.514l-4.223,4.948h-2.18l3.045-4.948
			C143.467,126.514,146.825,126.514,146.825,126.514z"/>
	</g>
	<path fill="#FFFFFF" d="M277.916,21.523C273.17,8.009,258.31,0.339,242.344,9.663c-13.38,7.808-7.547,18.185-6.617,19.667
		l4.565,12.355l-0.436,0.16l-15.311-3.981c-3.804-4.277-4.598-3.737-4.598-3.737c-6.888,4.769-2.834,14.395-1.669,14.209
		c1.169-0.18,6.443-2.627,6.443-2.627l21.439,11.854l29.363-10.849l-1.216-3.289C279.57,38.639,281.348,31.3,277.916,21.523z
		 M239.359,27.942c-1.077-2.351-3.275-9.032,3.493-14.044c8.344-6.177,24.742-6.925,30.477,7.253
		c4.444,10.993,1.227,16.499-0.446,18.423l-7.812-21.133L239.359,27.942z"/>
</g>
</svg>
