<?xml version="1.0" encoding="utf-8"?>
<!-- Generator: Adobe Illustrator 17.0.1, SVG Export Plug-In . SVG Version: 6.00 Build 0)  -->
<!DOCTYPE svg PUBLIC "-//W3C//DTD SVG 1.1//EN" "http://www.w3.org/Graphics/SVG/1.1/DTD/svg11.dtd">
<svg version="1.1" id="Calque_1" xmlns="http://www.w3.org/2000/svg" xmlns:xlink="http://www.w3.org/1999/xlink" x="0px" y="0px"
	 width="101.899px" height="59.494px" viewBox="0 0 101.899 59.494" enable-background="new 0 0 101.899 59.494"
	 xml:space="preserve">
<path fill="#FFFFFF" d="M84.489,48.826l-0.47,0.998c3.039,11.279,17.125,2.447,17.125,2.447
	C91.357,40.387,84.489,48.826,84.489,48.826z M93.621,50.609c-0.216-0.081-0.519-0.216-0.896-0.331
	c-0.188-0.059-0.385-0.137-0.601-0.2c-0.216-0.06-0.442-0.125-0.679-0.19c-0.236-0.051-0.482-0.104-0.732-0.158
	c-0.25-0.044-0.507-0.08-0.763-0.117c-0.258-0.02-0.515-0.057-0.769-0.062c-0.255-0.004-0.505-0.024-0.748-0.009
	c-0.485,0.004-0.937,0.06-1.322,0.116c-0.776,0.119-1.279,0.303-1.279,0.303s0.109-0.077,0.317-0.185
	c0.212-0.099,0.516-0.247,0.904-0.358c0.389-0.113,0.853-0.217,1.359-0.254c0.252-0.027,0.514-0.032,0.781-0.03
	c0.267,0,0.535,0.035,0.806,0.05c0.269,0.044,0.536,0.085,0.796,0.137c0.259,0.063,0.512,0.133,0.754,0.201
	c0.237,0.089,0.466,0.173,0.682,0.253c0.217,0.083,0.409,0.188,0.59,0.274c0.366,0.166,0.638,0.37,0.838,0.487
	c0.196,0.124,0.306,0.201,0.306,0.201S93.841,50.69,93.621,50.609z"/>
<path fill="#FFFFFF" d="M80.118,48.876c0.091,0.13,0.447,0.812,0.447,0.812c5.721,2.796,7.589-6.438,7.589-6.438
	C79.276,42.916,79.569,48.106,80.118,48.876z M85.817,45.068c-0.16,0.083-0.392,0.19-0.652,0.349
	c-0.131,0.079-0.277,0.154-0.424,0.247c-0.146,0.094-0.298,0.194-0.457,0.296c-0.151,0.113-0.308,0.227-0.467,0.344
	c-0.154,0.123-0.307,0.256-0.459,0.383c-0.145,0.14-0.299,0.27-0.43,0.416c-0.133,0.144-0.273,0.28-0.387,0.428
	c-0.247,0.285-0.446,0.576-0.611,0.829c-0.329,0.51-0.479,0.897-0.479,0.897s0.01-0.103,0.056-0.279
	c0.05-0.174,0.122-0.427,0.256-0.708c0.133-0.284,0.309-0.607,0.547-0.92c0.113-0.16,0.245-0.316,0.383-0.469
	c0.137-0.154,0.294-0.294,0.443-0.443c0.161-0.133,0.323-0.266,0.487-0.392c0.169-0.117,0.337-0.229,0.502-0.333
	c0.173-0.095,0.339-0.183,0.497-0.269c0.158-0.083,0.318-0.139,0.46-0.202c0.284-0.127,0.542-0.18,0.711-0.236
	c0.174-0.051,0.274-0.074,0.274-0.074S85.975,44.983,85.817,45.068z"/>
<g>
	<path fill="#FFFFFF" d="M16.419,25.857c-0.019,0.247-0.027,0.441-0.027,0.583c-0.196,1.979-1.104,3.595-2.73,4.849
		c-1.466,1.113-3.136,1.67-5.009,1.67c-0.883,0-2.172-0.07-3.869-0.212v7.581H3.459V19.046c2.845-0.23,4.576-0.346,5.193-0.346
		c2.12-0.158,3.879,0.337,5.275,1.484c0.777,0.636,1.334,1.237,1.668,1.802c0.477,0.779,0.743,1.742,0.796,2.889
		c0,0.213,0.008,0.354,0.027,0.424C16.419,25.441,16.419,25.626,16.419,25.857z M15.04,25.061c-0.106-1.59-0.716-2.845-1.829-3.763
		c-1.219-0.989-2.642-1.43-4.268-1.325c-1.112,0-2.501,0.089-4.161,0.265v5.883c0,0.106,0,0.169,0,0.186
		c-0.017,0.247-0.017,0.495,0,0.742c0,0.09,0,0.16,0,0.213v4.16c2.28,0.177,3.666,0.265,4.161,0.265
		c1.343,0.09,2.668-0.406,3.976-1.483c1.13-0.901,1.81-2.093,2.042-3.577c0.034-0.266,0.06-0.496,0.079-0.69
		C15.058,25.512,15.058,25.219,15.04,25.061z"/>
	<path fill="#FFFFFF" d="M5.334,40.875H2.909V18.538l0.506-0.04c2.892-0.233,4.606-0.347,5.238-0.347
		c0.231-0.018,0.497-0.029,0.757-0.029c1.907,0,3.544,0.552,4.866,1.639c0.834,0.682,1.42,1.319,1.793,1.946
		c0.52,0.847,0.815,1.907,0.873,3.145c0,0.165,0.001,0.266,0.012,0.324l0.014,0.124v0.558c-0.017,0.269-0.026,0.45-0.026,0.583
		c-0.211,2.18-1.201,3.94-2.943,5.285c-1.562,1.184-3.359,1.785-5.346,1.785c-0.79,0-1.904-0.056-3.319-0.166V40.875z M4.009,39.776
		h0.226v-7.627l0.594,0.05c1.669,0.139,2.956,0.21,3.823,0.21c1.743,0,3.314-0.524,4.678-1.557c1.51-1.166,2.334-2.627,2.514-4.466
		c-0.003-0.097,0.006-0.304,0.026-0.568l-0.003-0.463c-0.017-0.113-0.026-0.263-0.026-0.479c-0.048-1.023-0.289-1.907-0.714-2.6
		c-0.306-0.514-0.826-1.071-1.548-1.665c-1.28-1.053-2.923-1.51-4.883-1.361c-0.597,0.001-2.16,0.103-4.687,0.304V39.776z
		 M9.25,32.247L9.25,32.247c-0.113,0-0.227-0.004-0.34-0.011c-0.484,0-1.854-0.087-4.168-0.266l-0.506-0.04v-4.882
		c-0.018-0.233-0.018-0.509,0-0.78v-0.147v-6.378l0.491-0.051c1.673-0.179,3.092-0.268,4.218-0.268
		c0.134-0.01,0.301-0.016,0.466-0.016c1.556,0,2.952,0.493,4.149,1.463c1.232,1.018,1.914,2.414,2.03,4.155
		c0.019,0.167,0.019,0.471,0.002,0.933c-0.022,0.229-0.048,0.466-0.084,0.739c-0.253,1.63-1.007,2.95-2.245,3.936
		C11.967,31.702,10.614,32.247,9.25,32.247z M5.334,30.913c1.955,0.149,3.167,0.225,3.61,0.225c0.127,0.007,0.217,0.01,0.306,0.01
		c1.103,0,2.219-0.461,3.32-1.369c1.036-0.826,1.637-1.883,1.847-3.237c0.033-0.246,0.059-0.467,0.076-0.656
		c0.02-0.49,0.009-0.69,0-0.764c-0.097-1.469-0.631-2.573-1.631-3.399c-1.114-0.904-2.389-1.302-3.88-1.2
		c-1.009,0-2.226,0.071-3.648,0.213v5.572c-0.017,0.26-0.017,0.483-0.001,0.703L5.334,30.913z"/>
</g>
<g>
	<path fill="#FFFFFF" d="M31.286,26.97c1.412,1.571,2.119,3.453,2.119,5.644c0,2.509-0.623,4.471-1.867,5.883
		c-1.246,1.413-2.973,2.121-5.182,2.121c-2.121,0-3.825-0.716-5.113-2.147c-1.292-1.432-1.936-3.383-1.936-5.856
		c0-2.191,0.711-4.073,2.133-5.644c1.423-1.573,3.062-2.359,4.917-2.359C28.229,24.611,29.871,25.396,31.286,26.97z M30.49,37.478
		c1.06-1.21,1.59-2.832,1.59-4.863c0-1.82-0.574-3.387-1.723-4.705c-1.149-1.316-2.475-1.975-3.975-1.975
		c-1.503,0-2.827,0.659-3.975,1.975c-1.149,1.317-1.723,2.885-1.723,4.705c0,2.067,0.52,3.696,1.563,4.889
		c1.043,1.193,2.42,1.788,4.135,1.788C28.06,39.292,29.43,38.688,30.49,37.478z"/>
	<path fill="#FFFFFF" d="M26.356,41.168c-2.273,0-4.13-0.784-5.522-2.33c-1.379-1.527-2.078-3.621-2.078-6.224
		c0-2.321,0.766-4.344,2.276-6.015c1.524-1.685,3.316-2.539,5.324-2.539c2.027,0,3.822,0.854,5.339,2.54
		c1.5,1.67,2.26,3.693,2.26,6.013c0,2.635-0.674,4.736-2.006,6.247C30.6,40.391,28.719,41.168,26.356,41.168z M26.356,25.161
		c-1.708,0-3.182,0.711-4.508,2.177c-1.34,1.482-1.992,3.208-1.992,5.276c0,2.322,0.603,4.167,1.793,5.488
		c1.192,1.323,2.73,1.966,4.707,1.966c2.061,0,3.622-0.633,4.769-1.935c1.149-1.303,1.73-3.16,1.73-5.519
		c0-2.07-0.647-3.796-1.979-5.277C29.56,25.873,28.08,25.161,26.356,25.161z M26.383,39.842c-1.872,0-3.403-0.666-4.549-1.978
		c-1.127-1.29-1.7-3.056-1.7-5.25c0-1.949,0.626-3.653,1.86-5.066c1.251-1.435,2.728-2.162,4.389-2.162
		c1.66,0,3.138,0.727,4.389,2.162c1.234,1.414,1.858,3.119,1.858,5.066c0,2.159-0.581,3.917-1.727,5.225
		C29.74,39.168,28.219,39.842,26.383,39.842z M26.383,26.485c-1.347,0-2.512,0.585-3.562,1.786
		c-1.067,1.225-1.587,2.645-1.587,4.343c0,1.92,0.482,3.443,1.429,4.528c0.94,1.077,2.157,1.6,3.72,1.6
		c1.526,0,2.735-0.532,3.693-1.627c0.964-1.102,1.454-2.616,1.454-4.5c0-1.699-0.518-3.119-1.587-4.343
		C28.894,27.07,27.73,26.485,26.383,26.485z"/>
</g>
<g>
	<path fill="#FFFFFF" d="M43.079,39.292v1.14c-1.043,0-1.714-0.019-2.015-0.053c-0.83-0.088-1.44-0.3-1.829-0.637
		c-0.636-0.547-1.033-1.438-1.191-2.676c-0.054-0.495-0.099-1.873-0.133-4.135c-0.036-2.226-0.036-4.452,0-6.678h-2.228v-1.326
		h2.228v-2.57h1.324v2.57h3.419v1.326h-3.419c-0.036,2.19-0.036,4.39,0,6.599c0.017,2.049,0.044,3.242,0.08,3.578
		c0.123,1.166,0.433,1.97,0.927,2.412C40.648,39.178,41.594,39.328,43.079,39.292z"/>
	<path fill="#FFFFFF" d="M43.629,40.982h-0.55c-1.071,0-1.751-0.019-2.077-0.057c-0.949-0.102-1.646-0.353-2.126-0.768
		c-0.737-0.634-1.202-1.651-1.377-3.021c-0.057-0.529-0.101-1.897-0.137-4.196c-0.033-2.034-0.036-4.096-0.008-6.136h-2.217v-2.426
		h2.226v-2.57h2.425v2.57h3.419v2.426h-3.426c-0.027,2-0.026,4.029,0.007,6.039c0.022,2.523,0.054,3.312,0.076,3.529
		c0.107,1.007,0.366,1.719,0.747,2.06c0.106,0.086,0.547,0.316,2.056,0.316c0.128,0,0.263-0.001,0.401-0.006l0.563-0.013V40.982z
		 M36.235,25.704h2.234l-0.01,0.559c-0.034,2.21-0.034,4.451,0,6.661c0.036,2.235,0.079,3.607,0.13,4.085
		c0.138,1.082,0.479,1.864,1.004,2.319c0.301,0.26,0.814,0.43,1.528,0.505c0.166,0.02,0.542,0.042,1.406,0.047v-0.033
		c-1.333-0.012-2.172-0.197-2.636-0.581c-0.622-0.555-0.984-1.459-1.125-2.777c-0.037-0.357-0.064-1.544-0.083-3.63
		c-0.036-2.2-0.036-4.426,0-6.612l0.01-0.541h3.409v-0.226h-3.419v-2.57h-0.226v2.57h-2.224V25.704z"/>
</g>
<g>
	<path fill="#FFFFFF" d="M58.449,25.061v15.186h-1.325v-1.723v-0.927c-0.354,0.53-0.83,1.06-1.431,1.59
		c-1.237,1.077-2.642,1.616-4.213,1.616c-1.909,0-3.472-0.794-4.69-2.384c-1.114-1.466-1.67-3.189-1.67-5.168
		c0-0.513,0.044-1.034,0.132-1.564c0.354-2.19,1.298-3.958,2.836-5.299c1.431-1.273,3.154-1.837,5.169-1.697
		C54.65,24.708,56.381,24.833,58.449,25.061z M57.124,33.039v-6.812c-2.279-0.176-3.667-0.264-4.162-0.264
		c-1.536-0.105-2.923,0.389-4.16,1.484c-0.725,0.636-1.297,1.527-1.722,2.676c-0.389,1.043-0.584,2.104-0.584,3.181
		c0,1.343,0.283,2.5,0.849,3.472c1.06,1.784,2.403,2.676,4.029,2.676c1.289,0,2.507-0.494,3.658-1.483
		C56.408,36.748,57.105,35.104,57.124,33.039z"/>
	<path fill="#FFFFFF" d="M51.479,41.353c-2.08,0-3.805-0.875-5.127-2.601c-1.183-1.559-1.783-3.41-1.783-5.502
		c0-0.542,0.047-1.099,0.14-1.654c0.371-2.307,1.387-4.2,3.016-5.623c1.535-1.364,3.406-1.983,5.568-1.83
		c1.373,0.016,3.139,0.142,5.218,0.373l0.488,0.054v16.227h-2.424v-1.684c-0.163,0.162-0.336,0.326-0.519,0.487
		C54.72,40.764,53.18,41.353,51.479,41.353z M52.66,25.219c-1.636,0-3.013,0.516-4.207,1.578c-1.435,1.253-2.328,2.926-2.658,4.978
		c-0.084,0.5-0.125,0.996-0.125,1.476c0,1.846,0.524,3.473,1.557,4.835c1.117,1.458,2.509,2.167,4.253,2.167
		c1.447,0,2.708-0.484,3.852-1.48c0.559-0.494,1.01-0.993,1.336-1.481l1.007-1.509v3.915h0.224V25.555
		c-1.83-0.193-3.393-0.298-4.65-0.315C53.028,25.225,52.842,25.219,52.66,25.219z M51.373,40.001c-1.826,0-3.34-0.99-4.501-2.945
		c-0.615-1.056-0.925-2.317-0.925-3.753c0-1.139,0.208-2.273,0.617-3.374c0.455-1.229,1.084-2.203,1.875-2.897
		c1.343-1.188,2.876-1.736,4.562-1.619c0.453-0.008,1.849,0.086,4.166,0.266l0.507,0.039v7.32c-0.02,2.225-0.787,4.021-2.28,5.341
		C54.144,39.457,52.792,40.001,51.373,40.001z M52.561,26.498c-1.251,0-2.362,0.444-3.395,1.36c-0.652,0.573-1.18,1.397-1.57,2.455
		c-0.364,0.977-0.55,1.983-0.55,2.99c0,1.238,0.26,2.313,0.774,3.196c0.96,1.614,2.123,2.402,3.553,2.402
		c1.165,0,2.243-0.441,3.297-1.35c1.262-1.116,1.886-2.596,1.903-4.518v-6.296c-1.959-0.149-3.172-0.224-3.612-0.224
		C52.802,26.502,52.681,26.498,52.561,26.498z"/>
</g>
<g>
	<path fill="#FFFFFF" d="M79.782,32.587v0.133c0,0.211,0.027,0.45,0.08,0.716c0.334,2.084,1.007,3.569,2.013,4.452
		c1.131,0.99,2.456,1.484,3.976,1.484c1.077,0.053,2.049-0.036,2.914-0.266c0.319-0.07,1.052-0.264,2.2-0.583
		c0,0.389,0,0.716,0,0.981c0,0.265,0,0.37,0,0.317c-1.131,0.335-2.278,0.574-3.445,0.716c-0.478,0.053-0.937,0.088-1.378,0.105
		c-2.031,0.019-3.701-0.547-5.009-1.696c-1.501-1.326-2.403-3.233-2.703-5.723v-0.557c0-0.23,0-0.424,0-0.583
		c0-0.123,0.009-0.239,0.027-0.344c0.176-2.19,1.086-4.002,2.729-5.434c1.237-1.096,2.642-1.643,4.213-1.643
		c0.301,0,0.61,0.026,0.929,0.08c1.731,0.283,3.108,1.236,4.133,2.862c0.92,1.466,1.343,3.128,1.272,4.982H79.782z M79.835,31.289
		h10.495c-0.106-0.976-0.38-1.829-0.821-2.556c-1.043-1.812-2.386-2.718-4.029-2.718c-1.271,0-2.473,0.497-3.604,1.492
		C80.745,28.501,80.065,29.761,79.835,31.289z"/>
	<path fill="#FFFFFF" d="M86.049,41.194c-2.119,0-3.895-0.617-5.279-1.833c-1.6-1.412-2.57-3.455-2.886-6.071l-0.004-0.065v-1.14
		c0-0.156,0.013-0.302,0.034-0.436c0.182-2.281,1.163-4.233,2.91-5.756c1.331-1.179,2.872-1.779,4.575-1.779
		c0.331,0,0.674,0.03,1.019,0.087c1.883,0.307,3.401,1.354,4.509,3.112c0.975,1.556,1.43,3.336,1.355,5.296l-0.02,0.528H80.366
		c0.01,0.062,0.021,0.126,0.034,0.19c0.317,1.966,0.933,3.355,1.837,4.148c1.036,0.906,2.217,1.347,3.613,1.347
		c0.22,0.01,0.41,0.014,0.597,0.014c0.79,0,1.523-0.087,2.178-0.262c0.323-0.071,1.033-0.26,2.193-0.581l0.697-0.193v2.432
		l-0.395,0.117c-1.15,0.341-2.341,0.588-3.535,0.734c-0.486,0.055-0.964,0.092-1.421,0.11H86.049z M78.98,33.19
		c0.286,2.326,1.133,4.125,2.517,5.347c1.176,1.033,2.709,1.559,4.552,1.559l0.089-0.001c0.414-0.016,0.864-0.051,1.321-0.103
		c0.993-0.12,1.987-0.315,2.956-0.583v-0.163c-0.781,0.214-1.275,0.343-1.53,0.398c-0.89,0.237-1.929,0.333-3.062,0.277
		c-0.001,0-0.003,0-0.003,0c-1.623,0-3.08-0.544-4.307-1.619c-1.101-0.967-1.84-2.575-2.196-4.779
		c-0.056-0.281-0.085-0.557-0.085-0.803v-0.683H91.19c-0.027-1.526-0.427-2.916-1.194-4.14c-0.944-1.497-2.173-2.353-3.758-2.61
		c-0.287-0.048-0.568-0.073-0.838-0.073c-1.446,0-2.705,0.493-3.849,1.504c-1.549,1.349-2.38,3.004-2.546,5.066
		c-0.019,0.125-0.024,0.209-0.024,0.3V33.19z M90.943,31.839H79.196l0.096-0.632c0.247-1.651,0.994-3.035,2.22-4.113
		c1.228-1.08,2.563-1.628,3.967-1.628c1.846,0,3.362,1.007,4.504,2.992c0.477,0.784,0.777,1.72,0.892,2.773L90.943,31.839z
		 M80.505,30.739h9.185c-0.13-0.643-0.349-1.22-0.651-1.722c-0.953-1.653-2.114-2.452-3.559-2.452c-1.145,0-2.204,0.443-3.242,1.354
		C81.359,28.694,80.788,29.621,80.505,30.739z"/>
</g>
<g>
	<path fill="#FFFFFF" d="M100.851,24.902v1.352c-0.707,0.247-1.352,0.619-1.935,1.113c-1.166,1.025-1.907,2.518-2.226,4.479
		c-0.106,0.636-0.159,1.033-0.159,1.193v7.208h-1.325V24.902h1.325v3.419c0.459-0.777,1.006-1.449,1.642-2.015
		C98.933,25.654,99.825,25.185,100.851,24.902z"/>
	<path fill="#FFFFFF" d="M97.081,40.796h-2.426V24.352h2.426v2.275c0.229-0.26,0.472-0.504,0.728-0.731
		c0.824-0.71,1.798-1.221,2.896-1.524l0.695-0.193v2.465l-0.368,0.128c-0.639,0.224-1.231,0.566-1.761,1.014
		c-1.056,0.927-1.744,2.325-2.038,4.147c-0.142,0.844-0.152,1.058-0.152,1.105V40.796z M95.756,39.696h0.226v-6.658
		c0-0.134,0.019-0.4,0.166-1.284c0.337-2.077,1.146-3.695,2.404-4.8c0.537-0.455,1.121-0.814,1.749-1.078v-0.213
		c-0.659,0.26-1.251,0.615-1.77,1.061c-0.583,0.519-1.1,1.153-1.527,1.876l-1.022,1.733v-4.881h-0.226V39.696z"/>
</g>
<path fill="#FFFFFF" d="M75.613,48.33l-0.033-6.925v-0.064h0.009c0.019-1.253,0.019-2.64,0-4.116V24.459l-0.495-0.051
	c-2.073-0.213-3.846-0.33-5.239-0.346c-2.156-0.153-4.039,0.464-5.591,1.829c-1.648,1.423-2.673,3.326-3.049,5.67
	c-0.073,0.551-0.11,1.102-0.11,1.636c0,2.11,0.599,3.969,1.783,5.528c1.323,1.726,3.057,2.602,5.153,2.602
	c1.703,0,3.242-0.59,4.577-1.754c0.191-0.17,0.373-0.34,0.544-0.512v2.189l-0.007,2.02c-1.487-1.22-3.362-1.744-4.805-1.744
	c-4.018,0-7.285,3.269-7.285,7.286c0,4.018,3.268,7.285,7.285,7.285c4.017,0,7.286-3.268,7.286-7.285
	C75.639,48.645,75.621,48.49,75.613,48.33z M73.164,32.98c-0.017,1.923-0.65,3.411-1.935,4.548c-1.053,0.924-2.13,1.373-3.293,1.373
	c-1.446,0-2.617-0.803-3.58-2.456c-0.513-0.88-0.773-1.956-0.773-3.195c0-1.008,0.184-2.023,0.548-3.013
	c0.39-1.041,0.927-1.868,1.596-2.456c1.045-0.912,2.176-1.359,3.469-1.359c0.108,0,0.218,0.004,0.33,0.01
	c0.444,0,1.671,0.068,3.653,0.203C73.197,27.584,73.191,29.71,73.164,32.98z M68.352,54.172c-2.956,0-5.361-2.404-5.361-5.36
	c0-2.956,2.405-5.362,5.361-5.362c1.491,0,5.362,0.964,5.362,5.362C73.714,51.768,71.308,54.172,68.352,54.172z"/>
<path fill="#FFFFFF" d="M76.282,15.619c0,0-0.399,2.325-3.513,1.123c0,0,1.719-3.169,3.495-1.363L76.282,15.619z"/>
<path fill="#FFFFFF" d="M76.018,17.506c0,0,1.05,0.696-0.207,1.959c0,0-1.179-1.523,0.087-2.002L76.018,17.506z"/>
<path fill="#FFFFFF" d="M74.298,17.843c0,0,1.135,1.489-1.246,2.646c0,0-0.912-2.712,1.096-2.765L74.298,17.843z"/>
<g>
	<path fill="#FFFFFF" d="M6.99,53.288c0.346,0,0.639-0.051,0.879-0.152c0.24-0.102,0.445-0.215,0.614-0.342
		c0.168-0.126,0.318-0.24,0.449-0.341s0.264-0.151,0.398-0.151c0.168,0,0.253,0.126,0.253,0.379c0,0.135-0.017,0.297-0.051,0.486
		c-0.034,0.19-0.08,0.403-0.139,0.639c-0.034,0.145-0.116,0.301-0.247,0.469s-0.31,0.326-0.537,0.475
		c-0.228,0.146-0.508,0.27-0.841,0.366c-0.333,0.097-0.714,0.146-1.145,0.146s-0.86-0.063-1.29-0.189
		c-0.43-0.127-0.813-0.342-1.151-0.645c-0.337-0.305-0.611-0.713-0.822-1.228c-0.211-0.515-0.316-1.159-0.316-1.935
		c0-0.279,0.019-0.602,0.057-0.968c0.038-0.366,0.111-0.744,0.221-1.132c0.109-0.388,0.263-0.77,0.461-1.145
		s0.453-0.711,0.765-1.006s0.693-0.533,1.145-0.715c0.451-0.181,0.989-0.271,1.613-0.271c0.497,0,0.93,0.059,1.296,0.178
		c0.367,0.117,0.67,0.279,0.911,0.486c0.24,0.207,0.417,0.449,0.531,0.727c0.114,0.279,0.171,0.574,0.171,0.886
		c0,0.54-0.158,0.935-0.474,1.183c-0.316,0.249-0.765,0.373-1.347,0.373c-0.186,0-0.301-0.015-0.348-0.044
		C8,49.786,7.977,49.725,7.977,49.632c-0.009-0.286-0.017-0.535-0.025-0.746c-0.009-0.211-0.038-0.386-0.089-0.524
		c-0.05-0.14-0.128-0.24-0.234-0.305c-0.105-0.063-0.251-0.094-0.436-0.094c-0.27,0-0.5,0.057-0.689,0.17
		c-0.189,0.114-0.35,0.262-0.48,0.443c-0.131,0.182-0.236,0.385-0.316,0.613c-0.08,0.228-0.144,0.459-0.189,0.695
		c-0.046,0.236-0.076,0.464-0.089,0.684c-0.012,0.219-0.019,0.408-0.019,0.568c0,0.775,0.128,1.328,0.386,1.656
		C6.052,53.124,6.451,53.288,6.99,53.288z"/>
	<path fill="#FFFFFF" d="M13.643,55.26c-0.582,0-1.064-0.082-1.448-0.246c-0.384-0.165-0.689-0.391-0.917-0.678
		c-0.228-0.286-0.388-0.621-0.48-1.005s-0.139-0.794-0.139-1.233c0-0.506,0.061-1,0.184-1.486c0.122-0.484,0.331-0.916,0.626-1.295
		c0.295-0.38,0.685-0.686,1.17-0.918c0.484-0.231,1.089-0.348,1.814-0.348c1.063,0,1.823,0.26,2.283,0.777
		c0.459,0.52,0.689,1.246,0.689,2.182c0,0.262-0.019,0.551-0.057,0.867c-0.038,0.316-0.11,0.63-0.215,0.941
		c-0.105,0.313-0.249,0.616-0.43,0.911c-0.182,0.296-0.411,0.557-0.689,0.784c-0.278,0.228-0.613,0.409-1.005,0.544
		S14.174,55.26,13.643,55.26z M14.237,49.733c-0.32,0-0.575,0.083-0.765,0.247c-0.189,0.165-0.333,0.362-0.43,0.595
		c-0.097,0.232-0.16,0.477-0.189,0.733c-0.03,0.257-0.044,0.474-0.044,0.651c0,0.557,0.089,0.965,0.266,1.227
		c0.177,0.262,0.43,0.393,0.759,0.393c0.295,0,0.538-0.094,0.728-0.279c0.189-0.185,0.337-0.408,0.442-0.67
		c0.105-0.261,0.177-0.535,0.215-0.822c0.038-0.286,0.057-0.526,0.057-0.721c0-0.422-0.078-0.752-0.234-0.992
		C14.884,49.854,14.616,49.733,14.237,49.733z"/>
	<path fill="#FFFFFF" d="M22.71,54.021c0-0.186,0.015-0.428,0.044-0.728c0.029-0.299,0.059-0.615,0.088-0.948
		c0.029-0.333,0.059-0.655,0.088-0.968c0.03-0.312,0.044-0.573,0.044-0.783c0-0.22-0.053-0.416-0.158-0.589s-0.31-0.259-0.613-0.259
		c-0.295,0-0.54,0.071-0.733,0.215c-0.194,0.143-0.356,0.404-0.487,0.783c-0.131,0.38-0.238,0.902-0.323,1.568
		s-0.164,1.522-0.24,2.568c-0.008,0.101-0.03,0.168-0.063,0.201c-0.034,0.035-0.106,0.051-0.215,0.051h-0.455
		c-0.262,0-0.474-0.027-0.639-0.082s-0.295-0.133-0.392-0.234c-0.097-0.101-0.165-0.225-0.203-0.373
		c-0.038-0.146-0.057-0.317-0.057-0.512c0-0.127,0.006-0.305,0.019-0.537s0.036-0.553,0.069-0.961
		c0.034-0.409,0.074-0.928,0.12-1.557c0.046-0.627,0.104-1.405,0.171-2.332c0.008-0.186,0.029-0.296,0.063-0.33
		c0.025-0.025,0.093-0.037,0.203-0.037h0.493c0.253,0,0.461,0.029,0.626,0.088c0.165,0.06,0.297,0.138,0.398,0.234
		c0.101,0.098,0.173,0.211,0.215,0.342c0.042,0.131,0.067,0.264,0.076,0.398c0.261-0.447,0.561-0.757,0.898-0.93
		c0.337-0.173,0.759-0.26,1.265-0.26c0.354,0,0.662,0.038,0.923,0.114c0.261,0.075,0.478,0.204,0.651,0.386s0.302,0.417,0.386,0.708
		c0.084,0.291,0.126,0.651,0.126,1.081c0,0.135-0.008,0.329-0.025,0.582c-0.017,0.253-0.038,0.529-0.063,0.828
		c-0.025,0.3-0.053,0.611-0.082,0.936c-0.03,0.325-0.057,0.627-0.083,0.904c-0.025,0.279-0.046,0.523-0.063,0.734
		c-0.017,0.211-0.025,0.35-0.025,0.417c0,0.186-0.021,0.298-0.063,0.335c-0.042,0.038-0.135,0.057-0.278,0.057h-0.405
		c-0.27,0-0.489-0.025-0.658-0.075c-0.168-0.051-0.299-0.122-0.392-0.216c-0.093-0.092-0.158-0.208-0.196-0.348
		C22.729,54.356,22.71,54.198,22.71,54.021z"/>
	<path fill="#FFFFFF" d="M30.564,54.021c0-0.186,0.015-0.428,0.044-0.728c0.029-0.299,0.059-0.615,0.088-0.948
		c0.029-0.333,0.059-0.655,0.088-0.968c0.03-0.312,0.044-0.573,0.044-0.783c0-0.22-0.053-0.416-0.158-0.589s-0.31-0.259-0.613-0.259
		c-0.295,0-0.54,0.071-0.733,0.215c-0.194,0.143-0.356,0.404-0.487,0.783c-0.131,0.38-0.238,0.902-0.323,1.568
		s-0.164,1.522-0.24,2.568c-0.008,0.101-0.03,0.168-0.063,0.201c-0.034,0.035-0.106,0.051-0.215,0.051h-0.455
		c-0.262,0-0.474-0.027-0.639-0.082s-0.295-0.133-0.392-0.234c-0.097-0.101-0.165-0.225-0.203-0.373
		c-0.038-0.146-0.057-0.317-0.057-0.512c0-0.127,0.006-0.305,0.019-0.537s0.036-0.553,0.069-0.961
		c0.034-0.409,0.074-0.928,0.12-1.557c0.046-0.627,0.104-1.405,0.171-2.332c0.008-0.186,0.029-0.296,0.063-0.33
		c0.025-0.025,0.093-0.037,0.203-0.037h0.493c0.253,0,0.461,0.029,0.626,0.088c0.165,0.06,0.297,0.138,0.398,0.234
		c0.101,0.098,0.173,0.211,0.215,0.342c0.042,0.131,0.067,0.264,0.076,0.398c0.261-0.447,0.561-0.757,0.898-0.93
		c0.337-0.173,0.759-0.26,1.265-0.26c0.354,0,0.662,0.038,0.923,0.114c0.261,0.075,0.478,0.204,0.651,0.386s0.302,0.417,0.386,0.708
		c0.084,0.291,0.126,0.651,0.126,1.081c0,0.135-0.008,0.329-0.025,0.582c-0.017,0.253-0.038,0.529-0.063,0.828
		c-0.025,0.3-0.053,0.611-0.082,0.936c-0.03,0.325-0.057,0.627-0.083,0.904c-0.025,0.279-0.046,0.523-0.063,0.734
		c-0.017,0.211-0.025,0.35-0.025,0.417c0,0.186-0.021,0.298-0.063,0.335c-0.042,0.038-0.135,0.057-0.278,0.057h-0.405
		c-0.27,0-0.489-0.025-0.658-0.075c-0.168-0.051-0.299-0.122-0.392-0.216c-0.093-0.092-0.158-0.208-0.196-0.348
		C30.583,54.356,30.564,54.198,30.564,54.021z"/>
	<path fill="#FFFFFF" d="M37.026,55.26c-0.371,0-0.74-0.047-1.106-0.139c-0.367-0.094-0.696-0.254-0.987-0.48
		c-0.291-0.229-0.529-0.531-0.714-0.911s-0.278-0.855-0.278-1.429c0-0.211,0.017-0.464,0.051-0.76
		c0.034-0.295,0.099-0.598,0.196-0.91c0.097-0.312,0.232-0.621,0.405-0.93c0.173-0.308,0.398-0.584,0.677-0.828
		s0.615-0.443,1.012-0.594c0.396-0.152,0.868-0.229,1.417-0.229c0.438,0,0.809,0.051,1.113,0.152
		c0.304,0.101,0.548,0.238,0.733,0.41c0.186,0.174,0.32,0.373,0.405,0.602c0.084,0.228,0.126,0.473,0.126,0.733
		c0,0.388-0.078,0.716-0.234,0.986c-0.156,0.271-0.358,0.495-0.607,0.677c-0.249,0.182-0.525,0.322-0.829,0.424
		c-0.303,0.101-0.603,0.179-0.898,0.233c-0.295,0.056-0.567,0.089-0.815,0.102c-0.249,0.013-0.441,0.019-0.576,0.019
		c0,0.16,0.023,0.318,0.07,0.475c0.046,0.156,0.116,0.293,0.208,0.411s0.215,0.215,0.367,0.29c0.152,0.076,0.337,0.114,0.557,0.114
		s0.39-0.036,0.512-0.107c0.122-0.071,0.221-0.151,0.297-0.24c0.076-0.089,0.141-0.169,0.196-0.24
		c0.055-0.071,0.128-0.107,0.221-0.107c0.042,0,0.116,0.011,0.221,0.032c0.105,0.021,0.213,0.064,0.323,0.133
		c0.109,0.066,0.207,0.16,0.291,0.277c0.084,0.118,0.126,0.27,0.126,0.455c0,0.245-0.076,0.455-0.228,0.633
		c-0.151,0.177-0.348,0.32-0.588,0.43s-0.508,0.189-0.803,0.24C37.591,55.235,37.305,55.26,37.026,55.26z M37.267,49.733
		c-0.186,0-0.344,0.053-0.474,0.158c-0.131,0.105-0.24,0.238-0.329,0.398c-0.088,0.16-0.156,0.338-0.202,0.531
		c-0.046,0.194-0.082,0.38-0.107,0.557c0.522-0.008,0.946-0.097,1.271-0.266c0.324-0.168,0.487-0.408,0.487-0.721
		c0-0.168-0.053-0.32-0.158-0.455S37.486,49.733,37.267,49.733z"/>
	<path fill="#FFFFFF" d="M44.045,53.579c0.245,0,0.457-0.034,0.639-0.102c0.181-0.067,0.339-0.143,0.474-0.228
		s0.249-0.16,0.342-0.228c0.092-0.067,0.177-0.102,0.253-0.102c0.194,0,0.291,0.127,0.291,0.379c0,0.06-0.013,0.143-0.038,0.247
		c-0.025,0.106-0.059,0.216-0.102,0.329c-0.042,0.113-0.086,0.221-0.133,0.322s-0.09,0.178-0.132,0.229
		c-0.042,0.041-0.116,0.109-0.222,0.201c-0.105,0.094-0.247,0.186-0.423,0.279c-0.177,0.092-0.384,0.174-0.62,0.246
		c-0.236,0.071-0.498,0.107-0.784,0.107c-0.321,0-0.651-0.049-0.993-0.146c-0.341-0.097-0.651-0.266-0.929-0.506
		c-0.278-0.24-0.508-0.565-0.689-0.974c-0.182-0.409-0.272-0.922-0.272-1.537c0-0.219,0.015-0.47,0.044-0.752
		c0.029-0.283,0.09-0.573,0.183-0.873c0.093-0.299,0.217-0.594,0.373-0.885c0.156-0.291,0.365-0.551,0.626-0.778
		c0.261-0.228,0.575-0.411,0.942-0.55s0.803-0.209,1.309-0.209c0.413,0,0.769,0.049,1.069,0.146c0.299,0.097,0.545,0.228,0.74,0.392
		c0.194,0.165,0.339,0.357,0.436,0.576c0.097,0.219,0.146,0.455,0.146,0.708c0,0.456-0.144,0.79-0.43,1.005
		c-0.287,0.216-0.691,0.323-1.214,0.323c-0.126,0-0.213-0.011-0.259-0.032c-0.046-0.021-0.069-0.068-0.069-0.145
		c0-0.203-0.004-0.384-0.013-0.545c-0.009-0.159-0.032-0.295-0.07-0.404c-0.038-0.109-0.095-0.193-0.17-0.252
		c-0.076-0.06-0.186-0.09-0.329-0.09c-0.261,0-0.47,0.085-0.626,0.254c-0.156,0.168-0.274,0.373-0.354,0.613
		s-0.131,0.486-0.152,0.74c-0.021,0.252-0.032,0.463-0.032,0.632c0,0.599,0.095,1.017,0.285,1.252
		C43.331,53.46,43.632,53.579,44.045,53.579z"/>
	<path fill="#FFFFFF" d="M50.028,49.885c-0.025,0.32-0.053,0.637-0.083,0.949c-0.029,0.312-0.057,0.606-0.082,0.885
		s-0.044,0.527-0.057,0.746s-0.019,0.388-0.019,0.506c0,0.219,0.025,0.365,0.076,0.437s0.135,0.107,0.253,0.107
		c0.093,0,0.173-0.017,0.24-0.051s0.131-0.071,0.19-0.114c0.059-0.041,0.111-0.08,0.158-0.113s0.099-0.051,0.158-0.051
		s0.114,0.033,0.165,0.102c0.05,0.067,0.076,0.223,0.076,0.468c0,0.464-0.126,0.831-0.379,1.101s-0.687,0.404-1.303,0.404
		c-0.607,0-1.056-0.141-1.347-0.424c-0.291-0.282-0.437-0.715-0.437-1.297c0-0.126,0.006-0.275,0.019-0.448s0.032-0.398,0.057-0.677
		s0.057-0.619,0.095-1.024s0.078-0.906,0.12-1.505h-0.67c-0.067,0-0.107-0.015-0.12-0.045c-0.013-0.029-0.019-0.073-0.019-0.133
		l0.038-0.645c0.008-0.109,0.023-0.217,0.044-0.322c0.021-0.105,0.063-0.2,0.126-0.285c0.063-0.084,0.154-0.151,0.272-0.201
		c0.118-0.051,0.274-0.076,0.468-0.076c0.059-0.152,0.126-0.333,0.202-0.544c0.076-0.211,0.152-0.415,0.228-0.614
		c0.076-0.197,0.149-0.363,0.221-0.499c0.071-0.135,0.137-0.202,0.196-0.202h0.367c0.354,0,0.599,0.109,0.734,0.328
		c0.135,0.221,0.202,0.481,0.202,0.785c0,0.168-0.013,0.417-0.038,0.746h1.328c0.135,0,0.202,0.059,0.202,0.177l-0.05,0.683
		c-0.017,0.254-0.086,0.458-0.208,0.613c-0.123,0.156-0.374,0.234-0.753,0.234H50.028z"/>
	<path fill="#FFFFFF" d="M55.213,55.26c-0.371,0-0.74-0.047-1.107-0.139c-0.366-0.094-0.695-0.254-0.986-0.48
		c-0.291-0.229-0.529-0.531-0.715-0.911s-0.277-0.855-0.277-1.429c0-0.211,0.017-0.464,0.051-0.76
		c0.033-0.295,0.099-0.598,0.195-0.91c0.098-0.312,0.232-0.621,0.404-0.93c0.174-0.308,0.398-0.584,0.678-0.828
		c0.277-0.244,0.615-0.443,1.012-0.594c0.396-0.152,0.867-0.229,1.416-0.229c0.438,0,0.809,0.051,1.113,0.152
		c0.303,0.101,0.547,0.238,0.732,0.41c0.186,0.174,0.32,0.373,0.405,0.602c0.085,0.228,0.126,0.473,0.126,0.733
		c0,0.388-0.078,0.716-0.233,0.986c-0.156,0.271-0.358,0.495-0.606,0.677c-0.25,0.182-0.525,0.322-0.829,0.424
		c-0.304,0.101-0.603,0.179-0.897,0.233c-0.295,0.056-0.567,0.089-0.816,0.102c-0.248,0.013-0.44,0.019-0.575,0.019
		c0,0.16,0.023,0.318,0.069,0.475c0.047,0.156,0.116,0.293,0.209,0.411s0.215,0.215,0.367,0.29c0.151,0.076,0.337,0.114,0.557,0.114
		c0.219,0,0.389-0.036,0.512-0.107c0.122-0.071,0.221-0.151,0.297-0.24s0.141-0.169,0.196-0.24c0.055-0.071,0.128-0.107,0.222-0.107
		c0.041,0,0.115,0.011,0.221,0.032c0.105,0.021,0.213,0.064,0.322,0.133c0.109,0.066,0.207,0.16,0.291,0.277
		c0.084,0.118,0.127,0.27,0.127,0.455c0,0.245-0.076,0.455-0.229,0.633c-0.15,0.177-0.348,0.32-0.588,0.43s-0.508,0.189-0.803,0.24
		S55.491,55.26,55.213,55.26z M55.454,49.733c-0.186,0-0.344,0.053-0.475,0.158s-0.24,0.238-0.329,0.398s-0.155,0.338-0.202,0.531
		c-0.047,0.194-0.082,0.38-0.107,0.557c0.522-0.008,0.946-0.097,1.271-0.266c0.324-0.168,0.486-0.408,0.486-0.721
		c0-0.168-0.053-0.32-0.158-0.455S55.672,49.733,55.454,49.733z M56.01,47.356c-0.06,0-0.125-0.021-0.197-0.063
		c-0.071-0.042-0.141-0.095-0.208-0.157c-0.067-0.064-0.124-0.131-0.171-0.203c-0.047-0.071-0.069-0.133-0.069-0.184
		c0-0.017,0.042-0.088,0.126-0.215s0.189-0.282,0.316-0.468s0.266-0.388,0.418-0.606c0.151-0.22,0.295-0.426,0.43-0.62
		c0.051-0.076,0.093-0.126,0.127-0.151c0.033-0.025,0.088-0.039,0.164-0.039c0.102,0,0.231,0.025,0.392,0.076
		s0.316,0.114,0.468,0.189c0.152,0.076,0.283,0.158,0.393,0.247s0.164,0.171,0.164,0.247c0,0.059-0.049,0.146-0.145,0.266
		c-0.098,0.117-0.223,0.248-0.374,0.392s-0.32,0.291-0.506,0.442c-0.186,0.152-0.366,0.291-0.544,0.418
		c-0.177,0.126-0.335,0.229-0.475,0.31C56.18,47.316,56.077,47.356,56.01,47.356z"/>
</g>
<path fill="#FFFFFF" d="M100.154,8.005c-1.734-4.938-7.164-7.741-12.998-4.333c-4.889,2.853-2.758,6.645-2.418,7.187l1.668,4.515
	l-0.159,0.059l-5.595-1.455c-1.39-1.563-1.68-1.366-1.68-1.366c-2.517,1.743-1.036,5.26-0.61,5.192
	c0.427-0.066,2.354-0.96,2.354-0.96l7.834,4.332L99.28,17.21l-0.444-1.202C100.758,14.26,101.408,11.578,100.154,8.005z
	 M86.065,10.351c-0.394-0.859-1.197-3.3,1.276-5.132c3.049-2.257,9.041-2.53,11.137,2.65c1.624,4.017,0.448,6.029-0.163,6.732
	L95.46,6.879L86.065,10.351z"/>
</svg>
