<?xml version="1.0" encoding="utf-8"?>
<!-- Generator: Adobe Illustrator 16.0.0, SVG Export Plug-In . SVG Version: 6.00 Build 0)  -->
<!DOCTYPE svg PUBLIC "-//W3C//DTD SVG 1.1//EN" "http://www.w3.org/Graphics/SVG/1.1/DTD/svg11.dtd">
<svg version="1.1" id="Calque_1" xmlns="http://www.w3.org/2000/svg" xmlns:xlink="http://www.w3.org/1999/xlink" x="0px" y="0px"
	 width="300px" height="300px" viewBox="0 0 300 300" enable-background="new 0 0 300 300" xml:space="preserve">
<path fill="none" stroke="#E63C11" stroke-width="0.5" stroke-miterlimit="10" d="M299.469,262.585
	c0,20.222-16.37,36.624-36.554,36.624H39.061c-20.191,0-36.561-16.402-36.561-36.624V38.292c0-20.225,16.369-36.625,36.561-36.625
	h223.854c20.184,0,36.554,16.401,36.554,36.625V262.585z"/>
<g>
	<path fill="#8BAC4D" d="M153.995,90.246c0,0-29.662-1.709-32.143-4.59c-2.486-2.881-7.03-23.045-19.853-26.747
		c0,0,5.784,0.414,15.718,9.461c9.926,9.056,18.605,10.704,18.605,10.704s-9.51-12.758-8.271-20.166
		c0,0,11.998,19.338,20.269,21.812l2.48-28.393c0,0,3.727-6.589,7.862-6.176v35.389c0,0,12.406-3.293,22.748-21.812
		c0,0-2.894,17.697-7.862,20.992c0,0,13.238-4.527,19.443-12.351c6.201-7.814,12.823-11.522,16.133-12.755
		c0,0-9.101,9.056-14.066,17.284c-4.961,8.229-9.512,15.225-11.992,15.637C180.589,88.95,153.995,90.246,153.995,90.246z"/>
	<g>
		<path fill="#E9562D" d="M154.833,242.801C94.048,258.389,38.909,195.42,59.579,129.963c20.684-65.457,94.624-39.903,94.624-39.903
			L154.833,242.801z"/>
		<path fill="#E84228" d="M153.371,242.986c60.785,15.59,115.933-47.381,95.247-112.837c-20.677-65.457-94.623-39.903-94.623-39.903
			L153.371,242.986z"/>
	</g>
	<path fill="#EE7A4F" d="M106.545,93.541c0,0-19.438-1.303-27.708,28.332c-8.279,29.628,9.095,41.15,17.373,39.503
		c8.271-1.646,21.508-25.513,23.988-46.912S106.545,93.541,106.545,93.541z"/>
</g>
</svg>
